<?xml version="1.0" encoding="UTF-8" standalone="no"?>
<!-- Created with Inkscape (http://www.inkscape.org/) -->

<svg
   xmlns:dc="http://purl.org/dc/elements/1.1/"
   xmlns:cc="http://creativecommons.org/ns#"
   xmlns:rdf="http://www.w3.org/1999/02/22-rdf-syntax-ns#"
   xmlns:svg="http://www.w3.org/2000/svg"
   xmlns="http://www.w3.org/2000/svg"
   xmlns:sodipodi="http://sodipodi.sourceforge.net/DTD/sodipodi-0.dtd"
   xmlns:inkscape="http://www.inkscape.org/namespaces/inkscape"
   width="115.32555"
   height="116.83884"
   id="svg2"
   version="1.1"
   inkscape:version="0.48.5 r10040"
   sodipodi:docname="icon.svg">
  <defs
     id="defs4" />
  <sodipodi:namedview
     id="base"
     pagecolor="#ac6546"
     bordercolor="#666666"
     borderopacity="1.0"
     inkscape:pageopacity="1"
     inkscape:pageshadow="2"
     inkscape:zoom="1.8101934"
     inkscape:cx="-25.891649"
     inkscape:cy="30.7364"
     inkscape:document-units="px"
     inkscape:current-layer="layer1"
     showgrid="false"
     fit-margin-top="0"
     fit-margin-left="0"
     fit-margin-right="0"
     fit-margin-bottom="0"
     showborder="false"
     inkscape:showpageshadow="true"
     inkscape:window-width="1366"
     inkscape:window-height="713"
     inkscape:window-x="-8"
     inkscape:window-y="-4"
     inkscape:window-maximized="1" />
  <metadata
     id="metadata7">
    <rdf:RDF>
      <cc:Work
         rdf:about="">
        <dc:format>image/svg+xml</dc:format>
        <dc:type
           rdf:resource="http://purl.org/dc/dcmitype/StillImage" />
        <dc:title />
      </cc:Work>
    </rdf:RDF>
  </metadata>
  <g
     inkscape:label="Layer 1"
     inkscape:groupmode="layer"
     id="layer1"
     transform="translate(-298.48016,-458.81253)">
    <g
       style="font-size:24px;font-style:normal;font-variant:normal;font-weight:normal;font-stretch:normal;line-height:125%;letter-spacing:0px;word-spacing:0px;fill:#95502d;fill-opacity:1;stroke:none;font-family:Deftone Stylus;-inkscape-font-specification:Deftone Stylus"
       id="text2985">
      <path
         d="m 388.02971,539.79536 c -2.7841,6.24003 -5.95209,11.61602 -9.504,16.128 -3.55209,4.51202 -7.63208,8.25601 -12.24,11.232 -4.51207,2.88001 -9.69607,5.04 -15.552,6.48 -5.76006,1.344 -12.28805,2.016 -19.584,2.016 -7.58403,0 -13.44003,-0.048 -17.568,-0.144 -4.12802,0 -6.76802,-0.096 -7.92,-0.288 l 40.896,-91.584 c 0.47994,-1.15191 0.71994,-2.06391 0.72,-2.736 -6e-5,-2.0159 -1.96806,-3.0239 -5.904,-3.024 l -1.44,0 c -2.97605,10e-5 -4.46405,-1.2959 -4.464,-3.888 -5e-5,-2.0159 0.86395,-3.55189 2.592,-4.608 1.72795,-1.15189 5.27995,-1.72789 10.656,-1.728 5.85594,1.1e-4 10.75193,0.43211 14.688,1.296 3.93592,0.76811 6.62392,2.2561 8.064,4.464 3.07192,-1.9199 6.23991,-3.35989 9.504,-4.32 3.26391,-0.95989 6.9119,-1.43989 10.944,-1.44 3.07189,1.1e-4 5.95189,0.28811 8.64,0.864 2.68789,0.57611 4.99188,1.44011 6.912,2.592 2.01588,1.0561 3.55188,2.3521 4.608,3.888 1.15188,1.4401 1.72788,3.0241 1.728,4.752 -1.2e-4,1.05609 -0.24012,2.40009 -0.72,4.032 -0.48012,1.63209 -1.53612,4.22409 -3.168,7.776 l -21.888,48.24 m -3.024,-46.08 c 0.9599,-2.11192 1.6799,-3.79191 2.16,-5.04 0.4799,-1.24791 0.8159,-2.25591 1.008,-3.024 0.2879,-0.76791 0.4319,-1.29591 0.432,-1.584 0.0959,-0.38391 0.1439,-0.67191 0.144,-0.864 -10e-5,-3.7439 -2.2081,-5.6159 -6.624,-5.616 -2.97609,1e-4 -5.37609,0.7201 -7.2,2.16 -1.82408,1.44009 -3.36008,3.64809 -4.608,6.624 l -34.416,77.04 c 0.19195,0.096 0.47995,0.19201 0.864,0.288 0.38395,1e-5 0.95995,1e-5 1.728,0 1.91995,1e-5 3.93595,-0.43199 6.048,-1.296 2.20794,-0.95999 4.51194,-2.59198 6.912,-4.896 2.49594,-2.30398 5.03993,-5.47198 7.632,-9.504 2.68793,-4.03197 5.42393,-9.16796 8.208,-15.408 l 17.712,-38.88"
         style="font-size:144px;fill:#95502d;fill-opacity:1"
         id="path2990"
         inkscape:connector-curvature="0" />
    </g>
    <g
       id="g3752"
       style="font-size:24px;font-style:normal;font-variant:normal;font-weight:normal;font-stretch:normal;line-height:125%;letter-spacing:0px;word-spacing:0px;fill:#ffffff;fill-opacity:1;stroke:none;font-family:Deftone Stylus;-inkscape-font-specification:Deftone Stylus"
       transform="translate(-7.1815531,-8.8388343)">
      <path
         inkscape:connector-curvature="0"
         id="path3754"
         style="font-size:144px;fill:#ffffff;fill-opacity:1"
         d="m 388.02971,539.79536 c -2.7841,6.24003 -5.95209,11.61602 -9.504,16.128 -3.55209,4.51202 -7.63208,8.25601 -12.24,11.232 -4.51207,2.88001 -9.69607,5.04 -15.552,6.48 -5.76006,1.344 -12.28805,2.016 -19.584,2.016 -7.58403,0 -13.44003,-0.048 -17.568,-0.144 -4.12802,0 -6.76802,-0.096 -7.92,-0.288 l 40.896,-91.584 c 0.47994,-1.15191 0.71994,-2.06391 0.72,-2.736 -6e-5,-2.0159 -1.96806,-3.0239 -5.904,-3.024 l -1.44,0 c -2.97605,10e-5 -4.46405,-1.2959 -4.464,-3.888 -5e-5,-2.0159 0.86395,-3.55189 2.592,-4.608 1.72795,-1.15189 5.27995,-1.72789 10.656,-1.728 5.85594,1.1e-4 10.75193,0.43211 14.688,1.296 3.93592,0.76811 6.62392,2.2561 8.064,4.464 3.07192,-1.9199 6.23991,-3.35989 9.504,-4.32 3.26391,-0.95989 6.9119,-1.43989 10.944,-1.44 3.07189,1.1e-4 5.95189,0.28811 8.64,0.864 2.68789,0.57611 4.99188,1.44011 6.912,2.592 2.01588,1.0561 3.55188,2.3521 4.608,3.888 1.15188,1.4401 1.72788,3.0241 1.728,4.752 -1.2e-4,1.05609 -0.24012,2.40009 -0.72,4.032 -0.48012,1.63209 -1.53612,4.22409 -3.168,7.776 l -21.888,48.24 m -3.024,-46.08 c 0.9599,-2.11192 1.6799,-3.79191 2.16,-5.04 0.4799,-1.24791 0.8159,-2.25591 1.008,-3.024 0.2879,-0.76791 0.4319,-1.29591 0.432,-1.584 0.0959,-0.38391 0.1439,-0.67191 0.144,-0.864 -10e-5,-3.7439 -2.2081,-5.6159 -6.624,-5.616 -2.97609,1e-4 -5.37609,0.7201 -7.2,2.16 -1.82408,1.44009 -3.36008,3.64809 -4.608,6.624 l -34.416,77.04 c 0.19195,0.096 0.47995,0.19201 0.864,0.288 0.38395,1e-5 0.95995,1e-5 1.728,0 1.91995,1e-5 3.93595,-0.43199 6.048,-1.296 2.20794,-0.95999 4.51194,-2.59198 6.912,-4.896 2.49594,-2.30398 5.03993,-5.47198 7.632,-9.504 2.68793,-4.03197 5.42393,-9.16796 8.208,-15.408 l 17.712,-38.88" />
    </g>
  </g>
</svg>
