<?xml version="1.0" encoding="UTF-8" standalone="no"?>
<!-- Created with Inkscape (http://www.inkscape.org/) -->

<svg
   xmlns:dc="http://purl.org/dc/elements/1.1/"
   xmlns:cc="http://creativecommons.org/ns#"
   xmlns:rdf="http://www.w3.org/1999/02/22-rdf-syntax-ns#"
   xmlns:svg="http://www.w3.org/2000/svg"
   xmlns="http://www.w3.org/2000/svg"
   xmlns:sodipodi="http://sodipodi.sourceforge.net/DTD/sodipodi-0.dtd"
   xmlns:inkscape="http://www.inkscape.org/namespaces/inkscape"
   width="289.45941"
   height="112.5"
   id="svg2"
   version="1.1"
   inkscape:version="0.48.5 r10040"
   sodipodi:docname="application.svg">
  <defs
     id="defs4" />
  <sodipodi:namedview
     id="base"
     pagecolor="#ffffff"
     bordercolor="#666666"
     borderopacity="1.0"
     inkscape:pageopacity="0.0"
     inkscape:pageshadow="2"
     inkscape:zoom="2.8"
     inkscape:cx="92.668681"
     inkscape:cy="56.537787"
     inkscape:document-units="px"
     inkscape:current-layer="layer1"
     showgrid="false"
     fit-margin-top="0"
     fit-margin-left="0"
     fit-margin-right="0"
     fit-margin-bottom="0"
     inkscape:window-width="1366"
     inkscape:window-height="713"
     inkscape:window-x="-8"
     inkscape:window-y="-4"
     inkscape:window-maximized="1" />
  <metadata
     id="metadata7">
    <rdf:RDF>
      <cc:Work
         rdf:about="">
        <dc:format>image/svg+xml</dc:format>
        <dc:type
           rdf:resource="http://purl.org/dc/dcmitype/StillImage" />
        <dc:title />
      </cc:Work>
    </rdf:RDF>
  </metadata>
  <g
     inkscape:label="Layer 1"
     inkscape:groupmode="layer"
     id="layer1"
     transform="translate(-250.60924,-378.43362)">
    <g
       style="font-size:24px;font-style:normal;font-variant:normal;font-weight:normal;font-stretch:normal;line-height:125%;letter-spacing:0px;word-spacing:0px;fill:#000000;fill-opacity:1;stroke:none;font-family:Deftone Stylus;-inkscape-font-specification:Deftone Stylus"
       id="text2985" />
    <g
       style="font-size:24px;font-style:normal;font-variant:normal;font-weight:normal;font-stretch:normal;line-height:125%;letter-spacing:0px;word-spacing:0px;fill:#000000;fill-opacity:1;stroke:none;font-family:Liberation Mono;-inkscape-font-specification:Liberation Mono"
       id="text2989">
      <path
         d="m 260.42955,395.76303 -3.76172,-5.20312 -3.78515,5.20312 -2.27344,0 4.86328,-6.51562 -4.65234,-6.16407 2.33203,0 3.51562,4.9336 3.49219,-4.9336 2.35547,0 -4.65235,6.14063 4.92188,6.53906 -2.35547,0"
         id="path3821"
         inkscape:connector-curvature="0" />
      <path
         d="m 284.10143,395.76303 0,-3.50391 2.7539,0 0,3.50391 -2.7539,0 m 0,-9.17578 0,-3.50391 2.7539,0 0,3.50391 -2.7539,0"
         id="path3823"
         inkscape:connector-curvature="0" />
      <path
         d="m 298.49205,395.76303 0,-3.50391 2.75391,0 0,3.50391 -2.75391,0 m 0,-9.17578 0,-3.50391 2.75391,0 0,3.50391 -2.75391,0"
         id="path3825"
         inkscape:connector-curvature="0" />
      <path
         d="m 256.30455,414.74741 0,11.01562 -2.10937,0 0,-11.01562 -3.07032,0 0,-1.66407 3.07032,0 0,-0.29297 c -1e-5,-0.78904 0.0859,-1.46092 0.25781,-2.01562 0.17968,-0.56248 0.46484,-1.01952 0.85547,-1.37109 0.39062,-0.35936 0.89452,-0.62108 1.51172,-0.78516 0.62499,-0.16405 1.3828,-0.24608 2.27343,-0.24609 0.22656,10e-6 0.49609,0.008 0.8086,0.0234 0.31249,0.008 0.62499,0.0235 0.9375,0.0469 0.31248,0.0234 0.60545,0.0508 0.8789,0.082 0.28124,0.0313 0.5039,0.0625 0.66797,0.0937 l 0,1.69922 c -0.14064,-0.0234 -0.35157,-0.0469 -0.63281,-0.0703 -0.28126,-0.0234 -0.57814,-0.043 -0.89063,-0.0586 -0.30469,-0.0234 -0.59766,-0.039 -0.8789,-0.0469 -0.28126,-0.0156 -0.49611,-0.0234 -0.64453,-0.0234 -0.51564,2e-5 -0.96486,0.0391 -1.34766,0.11719 -0.38282,0.0781 -0.69923,0.22267 -0.94922,0.43359 -0.25001,0.21095 -0.43751,0.50002 -0.5625,0.86719 -0.11719,0.3672 -0.17579,0.84376 -0.17578,1.42969 l 0,0.11718 5.75391,0 0,1.66407 -5.75391,0"
         id="path3827"
         inkscape:connector-curvature="0" />
      <path
         d="m 284.10143,425.76303 0,-3.50391 2.7539,0 0,3.50391 -2.7539,0 m 0,-9.17578 0,-3.50391 2.7539,0 0,3.50391 -2.7539,0"
         id="path3829"
         inkscape:connector-curvature="0" />
      <path
         d="m 298.49205,425.76303 0,-3.50391 2.75391,0 0,3.50391 -2.75391,0 m 0,-9.17578 0,-3.50391 2.75391,0 0,3.50391 -2.75391,0"
         id="path3831"
         inkscape:connector-curvature="0" />
      <path
         d="m 256.30455,444.74741 0,11.01562 -2.10937,0 0,-11.01562 -3.07032,0 0,-1.66407 3.07032,0 0,-0.29297 c -1e-5,-0.78904 0.0859,-1.46092 0.25781,-2.01562 0.17968,-0.56248 0.46484,-1.01952 0.85547,-1.37109 0.39062,-0.35936 0.89452,-0.62108 1.51172,-0.78516 0.62499,-0.16405 1.3828,-0.24608 2.27343,-0.24609 0.22656,10e-6 0.49609,0.008 0.8086,0.0234 0.31249,0.008 0.62499,0.0235 0.9375,0.0469 0.31248,0.0234 0.60545,0.0508 0.8789,0.082 0.28124,0.0313 0.5039,0.0625 0.66797,0.0937 l 0,1.69922 c -0.14064,-0.0234 -0.35157,-0.0469 -0.63281,-0.0703 -0.28126,-0.0234 -0.57814,-0.043 -0.89063,-0.0586 -0.30469,-0.0234 -0.59766,-0.039 -0.8789,-0.0469 -0.28126,-0.0156 -0.49611,-0.0234 -0.64453,-0.0234 -0.51564,2e-5 -0.96486,0.0391 -1.34766,0.11719 -0.38282,0.0781 -0.69923,0.22267 -0.94922,0.43359 -0.25001,0.21095 -0.43751,0.50002 -0.5625,0.86719 -0.11719,0.3672 -0.17579,0.84376 -0.17578,1.42969 l 0,0.11718 5.75391,0 0,1.66407 -5.75391,0"
         id="path3833"
         inkscape:connector-curvature="0" />
      <path
         d="m 289.2108,455.76303 -3.76172,-5.20312 -3.78515,5.20312 -2.27344,0 4.86328,-6.51562 -4.65234,-6.16407 2.33203,0 3.51562,4.9336 3.49219,-4.9336 2.35547,0 -4.65235,6.14063 4.92188,6.53906 -2.35547,0"
         id="path3835"
         inkscape:connector-curvature="0" />
      <path
         d="m 312.88268,455.76303 0,-3.50391 2.7539,0 0,3.50391 -2.7539,0 m 0,-9.17578 0,-3.50391 2.7539,0 0,3.50391 -2.7539,0"
         id="path3837"
         inkscape:connector-curvature="0" />
      <path
         d="m 327.2733,455.76303 0,-3.50391 2.75391,0 0,3.50391 -2.75391,0 m 0,-9.17578 0,-3.50391 2.75391,0 0,3.50391 -2.75391,0"
         id="path3839"
         inkscape:connector-curvature="0" />
    </g>
    <path
       style="fill:#ac6546;fill-opacity:1;stroke:none"
       d="m 320,378.43362 55.7143,0 0,22.5 -55.7143,0 z"
       id="rect2997"
       inkscape:connector-curvature="0" />
    <path
       style="fill:#d9a084;fill-opacity:1;stroke:none"
       d="m 345,408.43362 127.5,0 0,22.85714 -127.5,0 z"
       id="rect3767"
       inkscape:connector-curvature="0" />
    <path
       style="fill:#d9a084;fill-opacity:1;stroke:none"
       d="m 345.00003,439.86218 127.5,0 0,22.85715 -127.5,0 z"
       id="rect3769"
       inkscape:connector-curvature="0" />
    <path
       style="fill:#ac6546;fill-opacity:1;stroke:none"
       d="m 345.35715,468.43362 55.7143,0 0,22.5 -55.7143,0 z"
       id="rect3771"
       inkscape:connector-curvature="0" />
    <path
       style="fill:#ac6546;fill-opacity:1;stroke:none"
       d="m 479.05484,440.2627 55.7143,0 0,22.5 -55.7143,0 z"
       id="rect3773"
       inkscape:connector-curvature="0" />
    <path
       style="fill:#d9a084;fill-opacity:1;stroke:none"
       d="m 406.78571,468.07648 127.5,0 0,22.85714 -127.5,0 z"
       id="rect3775"
       inkscape:connector-curvature="0" />
    <g
       style="font-size:24px;font-style:normal;font-variant:normal;font-weight:normal;font-stretch:normal;line-height:125%;letter-spacing:0px;word-spacing:0px;fill:#000000;fill-opacity:1;stroke:none;font-family:Liberation Mono;-inkscape-font-specification:Liberation Mono"
       id="text3777">
      <path
         d="m 381.14008,389.09491 c -2e-5,1.52344 -0.15236,2.80469 -0.45704,3.84375 -0.29688,1.03125 -0.70704,1.86719 -1.23046,2.50781 -0.51564,0.64063 -1.12501,1.10157 -1.82813,1.38281 -0.70313,0.27344 -1.45313,0.41016 -2.25,0.41016 -0.80469,0 -1.55469,-0.13672 -2.25,-0.41016 -0.69532,-0.28124 -1.30078,-0.73828 -1.81641,-1.37109 -0.50781,-0.64062 -0.91015,-1.48046 -1.20703,-2.51953 -0.28906,-1.03906 -0.43359,-2.32031 -0.43359,-3.84375 0,-1.59374 0.14453,-2.91405 0.43359,-3.96094 0.29688,-1.04686 0.70313,-1.87889 1.21875,-2.49609 0.51562,-0.62499 1.125,-1.06249 1.82813,-1.3125 0.70312,-0.24999 1.46874,-0.37499 2.29687,-0.375 0.78906,1e-5 1.52734,0.12501 2.21485,0.375 0.6953,0.25001 1.30077,0.68751 1.8164,1.3125 0.51562,0.6172 0.92187,1.44923 1.21875,2.49609 0.29687,1.04689 0.4453,2.3672 0.44532,3.96094 m -2.14454,0 c -1e-5,-1.24218 -0.0781,-2.27733 -0.23437,-3.10547 -0.15626,-0.82811 -0.38673,-1.48827 -0.69141,-1.98047 -0.30469,-0.49217 -0.67969,-0.83983 -1.125,-1.04297 -0.43751,-0.20311 -0.9375,-0.30467 -1.5,-0.30468 -0.59375,1e-5 -1.11719,0.10548 -1.57031,0.3164 -0.45313,0.20314 -0.83594,0.5508 -1.14844,1.04297 -0.30469,0.4922 -0.53516,1.15236 -0.6914,1.98047 -0.15626,0.82032 -0.23438,1.85157 -0.23438,3.09375 0,1.20313 0.0781,2.21485 0.23438,3.03516 0.16406,0.82031 0.39843,1.48047 0.70312,1.98046 0.3125,0.50001 0.6914,0.85938 1.13672,1.07813 0.44531,0.21875 0.95312,0.32813 1.52344,0.32812 0.55468,1e-5 1.05468,-0.10937 1.5,-0.32812 0.4453,-0.21875 0.8203,-0.57812 1.125,-1.07813 0.31249,-0.49999 0.55077,-1.16015 0.71484,-1.98046 0.17187,-0.82031 0.2578,-1.83203 0.25781,-3.03516 m -4.96875,1.40625 0,-2.91797 2.75391,0 0,2.91797 -2.75391,0"
         id="path3848"
         inkscape:connector-curvature="0" />
    </g>
    <g
       style="font-size:24px;font-style:normal;font-variant:normal;font-weight:normal;font-stretch:normal;line-height:125%;letter-spacing:0px;word-spacing:0px;fill:#000000;fill-opacity:1;stroke:none;font-family:Liberation Mono;-inkscape-font-specification:Liberation Mono"
       id="text3781"
       transform="translate(25,0.35714286)">
      <path
         d="m 453.64008,419.09488 c -2e-5,1.52344 -0.15236,2.80469 -0.45704,3.84375 -0.29688,1.03125 -0.70704,1.86719 -1.23046,2.50781 -0.51564,0.64063 -1.12501,1.10156 -1.82813,1.38281 -0.70313,0.27344 -1.45313,0.41016 -2.25,0.41016 -0.80469,0 -1.55469,-0.13672 -2.25,-0.41016 -0.69532,-0.28125 -1.30078,-0.73828 -1.81641,-1.37109 -0.50781,-0.64062 -0.91015,-1.48047 -1.20703,-2.51953 -0.28906,-1.03906 -0.43359,-2.32031 -0.43359,-3.84375 0,-1.59374 0.14453,-2.91405 0.43359,-3.96094 0.29688,-1.04686 0.70313,-1.87889 1.21875,-2.49609 0.51562,-0.62499 1.125,-1.06249 1.82813,-1.3125 0.70312,-0.24999 1.46874,-0.37499 2.29687,-0.375 0.78906,10e-6 1.52734,0.12501 2.21485,0.375 0.6953,0.25001 1.30077,0.68751 1.8164,1.3125 0.51562,0.6172 0.92187,1.44923 1.21875,2.49609 0.29687,1.04689 0.4453,2.3672 0.44532,3.96094 m -2.14454,0 c -1e-5,-1.24218 -0.0781,-2.27733 -0.23437,-3.10547 -0.15626,-0.82811 -0.38673,-1.48827 -0.69141,-1.98047 -0.30469,-0.49217 -0.67969,-0.83983 -1.125,-1.04297 -0.43751,-0.20311 -0.9375,-0.30467 -1.5,-0.30468 -0.59375,10e-6 -1.11719,0.10548 -1.57031,0.3164 -0.45313,0.20314 -0.83594,0.5508 -1.14844,1.04297 -0.30469,0.4922 -0.53516,1.15236 -0.6914,1.98047 -0.15626,0.82032 -0.23438,1.85157 -0.23438,3.09375 0,1.20313 0.0781,2.21485 0.23438,3.03516 0.16406,0.82031 0.39843,1.48047 0.70312,1.98046 0.3125,0.50001 0.6914,0.85938 1.13672,1.07813 0.44531,0.21875 0.95312,0.32813 1.52344,0.32812 0.55468,10e-6 1.05468,-0.10937 1.5,-0.32812 0.4453,-0.21875 0.8203,-0.57812 1.125,-1.07813 0.31249,-0.49999 0.55077,-1.16015 0.71484,-1.98046 0.17187,-0.82031 0.2578,-1.83203 0.25781,-3.03516 m -4.96875,1.40625 0,-2.91797 2.75391,0 0,2.91797 -2.75391,0"
         id="path3851"
         inkscape:connector-curvature="0" />
    </g>
    <g
       style="font-size:24px;font-style:normal;font-variant:normal;font-weight:normal;font-stretch:normal;line-height:125%;letter-spacing:0px;word-spacing:0px;fill:#000000;fill-opacity:1;stroke:none;font-family:Liberation Mono;-inkscape-font-specification:Liberation Mono"
       id="text3785">
      <path
         d="m 540.06866,451.59491 c -10e-6,1.52344 -0.15235,2.80469 -0.45703,3.84375 -0.29688,1.03125 -0.70704,1.86719 -1.23047,2.50781 -0.51563,0.64063 -1.12501,1.10157 -1.82812,1.38281 -0.70313,0.27344 -1.45313,0.41016 -2.25,0.41016 -0.80469,0 -1.55469,-0.13672 -2.25,-0.41016 -0.69532,-0.28124 -1.30079,-0.73828 -1.81641,-1.37109 -0.50781,-0.64062 -0.91016,-1.48046 -1.20703,-2.51953 -0.28906,-1.03906 -0.43359,-2.32031 -0.43359,-3.84375 0,-1.59374 0.14453,-2.91405 0.43359,-3.96094 0.29687,-1.04686 0.70312,-1.87889 1.21875,-2.49609 0.51562,-0.62499 1.125,-1.06249 1.82813,-1.3125 0.70312,-0.24999 1.46874,-0.37499 2.29687,-0.375 0.78906,1e-5 1.52734,0.12501 2.21485,0.375 0.6953,0.25001 1.30077,0.68751 1.8164,1.3125 0.51562,0.6172 0.92186,1.44923 1.21875,2.49609 0.29686,1.04689 0.4453,2.3672 0.44531,3.96094 m -2.14453,0 c -10e-6,-1.24218 -0.0781,-2.27733 -0.23437,-3.10547 -0.15626,-0.82811 -0.38673,-1.48827 -0.69141,-1.98047 -0.30469,-0.49217 -0.67969,-0.83983 -1.125,-1.04297 -0.43751,-0.20311 -0.93751,-0.30467 -1.5,-0.30468 -0.59375,1e-5 -1.11719,0.10548 -1.57031,0.3164 -0.45313,0.20314 -0.83594,0.5508 -1.14844,1.04297 -0.30469,0.4922 -0.53516,1.15236 -0.6914,1.98047 -0.15626,0.82032 -0.23438,1.85157 -0.23438,3.09375 0,1.20313 0.0781,2.21485 0.23438,3.03516 0.16405,0.82031 0.39843,1.48047 0.70312,1.98046 0.3125,0.50001 0.6914,0.85938 1.13672,1.07813 0.44531,0.21875 0.95312,0.32813 1.52344,0.32812 0.55468,1e-5 1.05468,-0.10937 1.5,-0.32812 0.4453,-0.21875 0.8203,-0.57812 1.125,-1.07813 0.31249,-0.49999 0.55077,-1.16015 0.71484,-1.98046 0.17187,-0.82031 0.2578,-1.83203 0.25781,-3.03516 m -4.96875,1.40625 0,-2.91797 2.75391,0 0,2.91797 -2.75391,0"
         id="path3854"
         inkscape:connector-curvature="0" />
    </g>
    <g
       style="font-size:24px;font-style:normal;font-variant:normal;font-weight:normal;font-stretch:normal;line-height:125%;letter-spacing:0px;word-spacing:0px;fill:#000000;fill-opacity:1;stroke:none;font-family:Liberation Mono;-inkscape-font-specification:Liberation Mono"
       id="text3789">
      <path
         d="m 539.71149,479.09488 c -2e-5,1.52344 -0.15236,2.80469 -0.45703,3.84375 -0.29689,1.03125 -0.70705,1.86719 -1.23047,2.50781 -0.51564,0.64063 -1.12501,1.10156 -1.82813,1.38281 -0.70313,0.27344 -1.45313,0.41016 -2.25,0.41016 -0.80469,0 -1.55469,-0.13672 -2.25,-0.41016 -0.69531,-0.28125 -1.30078,-0.73828 -1.8164,-1.37109 -0.50782,-0.64062 -0.91016,-1.48047 -1.20704,-2.51953 -0.28906,-1.03906 -0.43359,-2.32031 -0.43359,-3.84375 0,-1.59374 0.14453,-2.91405 0.43359,-3.96094 0.29688,-1.04686 0.70313,-1.87889 1.21875,-2.49609 0.51563,-0.62499 1.125,-1.06249 1.82813,-1.3125 0.70312,-0.24999 1.46874,-0.37499 2.29687,-0.375 0.78906,10e-6 1.52734,0.12501 2.21485,0.375 0.6953,0.25001 1.30077,0.68751 1.8164,1.3125 0.51562,0.6172 0.92187,1.44923 1.21875,2.49609 0.29687,1.04689 0.4453,2.3672 0.44532,3.96094 m -2.14453,0 c -2e-5,-1.24218 -0.0781,-2.27733 -0.23438,-3.10547 -0.15626,-0.82811 -0.38673,-1.48827 -0.69141,-1.98047 -0.30469,-0.49217 -0.67969,-0.83983 -1.125,-1.04297 -0.4375,-0.20311 -0.9375,-0.30467 -1.5,-0.30468 -0.59375,10e-6 -1.11719,0.10548 -1.57031,0.3164 -0.45313,0.20314 -0.83594,0.5508 -1.14844,1.04297 -0.30469,0.4922 -0.53516,1.15236 -0.6914,1.98047 -0.15626,0.82032 -0.23438,1.85157 -0.23438,3.09375 0,1.20313 0.0781,2.21485 0.23438,3.03516 0.16406,0.82031 0.39843,1.48047 0.70312,1.98046 0.3125,0.50001 0.6914,0.85938 1.13672,1.07813 0.44531,0.21875 0.95312,0.32813 1.52344,0.32812 0.55468,10e-6 1.05468,-0.10937 1.5,-0.32812 0.4453,-0.21875 0.8203,-0.57812 1.125,-1.07813 0.31249,-0.49999 0.55077,-1.16015 0.71484,-1.98046 0.17187,-0.82031 0.2578,-1.83203 0.25782,-3.03516 m -4.96875,1.40625 0,-2.91797 2.7539,0 0,2.91797 -2.7539,0"
         id="path3857"
         inkscape:connector-curvature="0" />
    </g>
    <g
       style="font-size:24px;font-style:normal;font-variant:normal;font-weight:normal;font-stretch:normal;line-height:125%;letter-spacing:0px;word-spacing:0px;opacity:0.48623855;fill:#000000;fill-opacity:1;stroke:none;font-family:Liberation Mono;-inkscape-font-specification:Liberation Mono"
       id="text3793">
      <path
         d="m 334.55914,391.67801 c -1e-5,2.21875 -0.39845,3.87891 -1.19531,4.98047 -0.78907,1.10156 -1.92188,1.65234 -3.39844,1.65234 -0.90625,0 -1.69141,-0.16797 -2.35547,-0.5039 -0.66406,-0.33594 -1.18359,-0.88672 -1.55859,-1.65235 l -0.0234,0 c 0,0.20313 -0.004,0.41407 -0.0117,0.63281 -0.008,0.21094 -0.0195,0.40625 -0.0351,0.58594 -0.008,0.17969 -0.0195,0.33594 -0.0352,0.46875 -0.008,0.125 -0.0156,0.20313 -0.0234,0.23438 l -2.03906,0 c 0.008,-0.0703 0.0156,-0.1875 0.0234,-0.35157 0.008,-0.17187 0.0156,-0.375 0.0234,-0.60937 0.008,-0.23437 0.0117,-0.49219 0.0117,-0.77344 0.008,-0.28125 0.0117,-0.57421 0.0117,-0.8789 l 0,-14.77735 2.10938,0 0,4.95703 c 0,0.22658 -0.004,0.45314 -0.0117,0.67969 0,0.21876 -0.004,0.41407 -0.0117,0.58594 -0.008,0.20313 -0.0156,0.39454 -0.0234,0.57422 l 0.0469,0 c 0.37499,-0.8203 0.89062,-1.41405 1.54687,-1.78125 0.66406,-0.37499 1.45312,-0.56249 2.36719,-0.5625 1.52343,10e-6 2.66796,0.54298 3.4336,1.6289 0.76561,1.07814 1.14842,2.71486 1.14843,4.91016 m -2.17968,0.0703 c -2e-5,-0.87499 -0.0586,-1.62499 -0.17579,-2.25 -0.11719,-0.6328 -0.30079,-1.14843 -0.55078,-1.54687 -0.24219,-0.40624 -0.55079,-0.70312 -0.92578,-0.89063 -0.36719,-0.1953 -0.8086,-0.29296 -1.32422,-0.29297 -0.51563,1e-5 -0.98047,0.0899 -1.39453,0.26953 -0.41407,0.17189 -0.76563,0.46095 -1.05469,0.86719 -0.28125,0.39845 -0.5,0.9297 -0.65625,1.59375 -0.15625,0.65626 -0.23437,1.46876 -0.23437,2.4375 0,0.92969 0.0781,1.70313 0.23437,2.32031 0.15625,0.61719 0.375,1.11329 0.65625,1.48829 0.28906,0.36718 0.63672,0.6289 1.04297,0.78515 0.41406,0.14844 0.875,0.22266 1.38282,0.22266 0.49217,0 0.92577,-0.0898 1.30078,-0.26953 0.37499,-0.17969 0.68749,-0.46875 0.9375,-0.86719 0.24999,-0.39844 0.43749,-0.91406 0.5625,-1.54688 0.1328,-0.64062 0.1992,-1.41405 0.19922,-2.32031"
         id="path3860"
         inkscape:connector-curvature="0" />
    </g>
    <g
       style="font-size:24px;font-style:normal;font-variant:normal;font-weight:normal;font-stretch:normal;line-height:125%;letter-spacing:0px;word-spacing:0px;opacity:0.54587157;fill:#000000;fill-opacity:1;stroke:none;font-family:Liberation Mono;-inkscape-font-specification:Liberation Mono"
       id="text3801">
      <path
         d="m 359.68805,458.5614 c 0.11717,0 0.23436,-0.008 0.35156,-0.0234 0.11718,-0.0156 0.23046,-0.0351 0.33985,-0.0586 l 0,1.3125 c -0.26564,0.0625 -0.53127,0.10938 -0.79688,0.14063 -0.25782,0.0312 -0.53517,0.0469 -0.83203,0.0469 -0.39845,0 -0.7422,-0.0508 -1.03125,-0.15234 -0.28126,-0.10938 -0.51173,-0.26953 -0.69141,-0.48047 -0.17969,-0.21875 -0.31641,-0.48438 -0.41015,-0.79688 -0.0938,-0.32031 -0.15236,-0.6914 -0.17578,-1.11328 l -0.0703,0 c -0.21876,0.40625 -0.46094,0.77344 -0.72656,1.10156 -0.26563,0.32813 -0.57032,0.60938 -0.91406,0.84375 -0.34376,0.22657 -0.73829,0.40235 -1.1836,0.52735 -0.44531,0.125 -0.95703,0.1875 -1.53515,0.1875 -1.23438,0 -2.16407,-0.33594 -2.78906,-1.00781 -0.62501,-0.67188 -0.93751,-1.59375 -0.9375,-2.76563 -10e-6,-0.83593 0.15234,-1.51953 0.45703,-2.05078 0.31249,-0.53906 0.71874,-0.96093 1.21875,-1.26563 0.49999,-0.30468 1.0664,-0.51561 1.69922,-0.63281 0.64062,-0.12499 1.28905,-0.1914 1.94531,-0.19922 l 2.76562,-0.0469 0,-0.69141 c -1e-5,-0.52343 -0.0547,-0.96874 -0.16406,-1.33594 -0.10157,-0.36717 -0.26173,-0.66405 -0.48047,-0.89062 -0.21094,-0.22655 -0.48048,-0.39062 -0.80859,-0.49219 -0.32813,-0.10936 -0.71095,-0.16405 -1.14844,-0.16406 -0.39063,10e-6 -0.7461,0.0313 -1.06641,0.0937 -0.3125,0.0547 -0.58203,0.16017 -0.80859,0.31641 -0.22657,0.14844 -0.41407,0.35547 -0.5625,0.62109 -0.14063,0.25782 -0.23438,0.58595 -0.28125,0.98437 L 348.84821,450.37 c 0.0781,-0.49999 0.22265,-0.95703 0.43359,-1.3711 0.21875,-0.42186 0.52343,-0.78514 0.91406,-1.08984 0.39062,-0.30468 0.8789,-0.53905 1.46485,-0.70313 0.59374,-0.17186 1.30858,-0.2578 2.14453,-0.25781 1.56249,10e-6 2.73436,0.3672 3.51562,1.10156 0.78905,0.72658 1.18358,1.78126 1.1836,3.16407 l 0,5.46093 c -2e-5,0.62501 0.082,1.09766 0.24609,1.41797 0.16405,0.3125 0.47655,0.46875 0.9375,0.46875 m -7.13672,-0.0703 c 0.64843,0 1.21093,-0.12109 1.6875,-0.36328 0.47656,-0.25 0.87109,-0.5625 1.18359,-0.9375 0.32031,-0.375 0.55859,-0.78906 0.71485,-1.24219 0.15624,-0.45312 0.23436,-0.88671 0.23437,-1.30078 l 0,-1.04297 -2.22656,0.0469 c -0.42969,0.008 -0.86329,0.043 -1.30078,0.10546 -0.42969,0.0547 -0.82032,0.17579 -1.17188,0.36329 -0.34375,0.1875 -0.625,0.46094 -0.84375,0.82031 -0.21875,0.35156 -0.32812,0.82422 -0.32812,1.41797 0,0.64062 0.17187,1.15625 0.51562,1.54687 0.35156,0.39063 0.86328,0.58594 1.53516,0.58594"
         id="path3866"
         inkscape:connector-curvature="0" />
      <path
         d="m 365.09039,454.42468 0,-1.875 6.5625,0 0,1.875 -6.5625,0"
         id="path3868"
         inkscape:connector-curvature="0" />
      <path
         d="m 377.4068,459.86218 0,-1.69922 5.14453,0 0,-11.96484 c -0.14844,0.31251 -0.41016,0.60939 -0.78516,0.89063 -0.375,0.27345 -0.80859,0.51173 -1.30078,0.71484 -0.48438,0.20314 -1.00391,0.3672 -1.55859,0.49219 -0.55469,0.1172 -1.08985,0.17579 -1.60547,0.17578 l 0,-1.73438 c 0.57812,2e-5 1.14453,-0.0664 1.69922,-0.19922 0.5625,-0.1328 1.08593,-0.31639 1.57031,-0.55078 0.48437,-0.24217 0.91406,-0.52733 1.28906,-0.85547 0.375,-0.32811 0.66406,-0.68748 0.86719,-1.07812 l 1.94531,0 0,14.10937 4.13672,0 0,1.69922 -11.40234,0"
         id="path3870"
         inkscape:connector-curvature="0" />
    </g>
    <g
       style="font-size:24px;font-style:normal;font-variant:normal;font-weight:normal;font-stretch:normal;line-height:125%;letter-spacing:0px;word-spacing:0px;opacity:0.54587157;fill:#000000;fill-opacity:1;stroke:none;font-family:Liberation Mono;-inkscape-font-specification:Liberation Mono"
       id="text3805">
      <path
         d="m 359.55914,482.74945 c -1e-5,2.21875 -0.39845,3.87891 -1.19531,4.98047 -0.78907,1.10156 -1.92188,1.65234 -3.39844,1.65234 -0.90625,0 -1.69141,-0.16797 -2.35547,-0.5039 -0.66406,-0.33594 -1.18359,-0.88672 -1.55859,-1.65235 l -0.0234,0 c 0,0.20313 -0.004,0.41407 -0.0117,0.63282 -0.008,0.21093 -0.0195,0.40625 -0.0351,0.58593 -0.008,0.17969 -0.0195,0.33594 -0.0352,0.46875 -0.008,0.125 -0.0156,0.20313 -0.0234,0.23438 l -2.03906,0 c 0.008,-0.0703 0.0156,-0.1875 0.0234,-0.35156 0.008,-0.17188 0.0156,-0.375 0.0234,-0.60938 0.008,-0.23437 0.0117,-0.49219 0.0117,-0.77344 0.008,-0.28124 0.0117,-0.57421 0.0117,-0.8789 l 0,-14.77735 2.10938,0 0,4.95703 c 0,0.22658 -0.004,0.45314 -0.0117,0.67969 0,0.21876 -0.004,0.41408 -0.0117,0.58594 -0.008,0.20314 -0.0156,0.39454 -0.0234,0.57422 l 0.0469,0 c 0.37499,-0.8203 0.89062,-1.41405 1.54687,-1.78125 0.66406,-0.37499 1.45312,-0.56249 2.36719,-0.5625 1.52343,10e-6 2.66796,0.54298 3.4336,1.6289 0.76561,1.07814 1.14842,2.71486 1.14843,4.91016 m -2.17968,0.0703 c -2e-5,-0.87499 -0.0586,-1.62499 -0.17579,-2.25 -0.11719,-0.6328 -0.30079,-1.14842 -0.55078,-1.54687 -0.24219,-0.40624 -0.55079,-0.70312 -0.92578,-0.89063 -0.36719,-0.1953 -0.8086,-0.29295 -1.32422,-0.29297 -0.51563,2e-5 -0.98047,0.0899 -1.39453,0.26954 -0.41407,0.17188 -0.76563,0.46094 -1.05469,0.86718 -0.28125,0.39845 -0.5,0.9297 -0.65625,1.59375 -0.15625,0.65626 -0.23437,1.46876 -0.23437,2.4375 0,0.9297 0.0781,1.70313 0.23437,2.32032 0.15625,0.61719 0.375,1.11328 0.65625,1.48828 0.28906,0.36719 0.63672,0.6289 1.04297,0.78515 0.41406,0.14844 0.875,0.22266 1.38282,0.22266 0.49217,0 0.92577,-0.0898 1.30078,-0.26953 0.37499,-0.17969 0.68749,-0.46875 0.9375,-0.86719 0.24999,-0.39843 0.43749,-0.91406 0.5625,-1.54687 0.1328,-0.64062 0.1992,-1.41406 0.19922,-2.32032"
         id="path3873"
         inkscape:connector-curvature="0" />
    </g>
    <g
       style="font-size:24px;font-style:normal;font-variant:normal;font-weight:normal;font-stretch:normal;line-height:125%;letter-spacing:0px;word-spacing:0px;opacity:0.5;fill:#000000;fill-opacity:1;stroke:none;font-family:Liberation Mono;-inkscape-font-specification:Liberation Mono"
       id="text3809">
      <path
         d="m 493.13058,454.17804 c -1e-5,2.21875 -0.39845,3.87891 -1.19531,4.98047 -0.78907,1.10156 -1.92188,1.65234 -3.39844,1.65234 -0.90625,0 -1.69141,-0.16797 -2.35546,-0.5039 -0.66407,-0.33594 -1.1836,-0.88672 -1.5586,-1.65235 l -0.0234,0 c 0,0.20313 -0.004,0.41407 -0.0117,0.63281 -0.008,0.21094 -0.0195,0.40626 -0.0352,0.58594 -0.008,0.17969 -0.0195,0.33594 -0.0352,0.46875 -0.008,0.125 -0.0156,0.20313 -0.0234,0.23438 l -2.03907,0 c 0.008,-0.0703 0.0156,-0.1875 0.0234,-0.35157 0.008,-0.17187 0.0156,-0.37499 0.0234,-0.60937 0.008,-0.23437 0.0117,-0.49219 0.0117,-0.77344 0.008,-0.28125 0.0117,-0.57421 0.0117,-0.8789 l 0,-14.77735 2.10937,0 0,4.95703 c 0,0.22658 -0.004,0.45314 -0.0117,0.67969 0,0.21876 -0.004,0.41407 -0.0117,0.58594 -0.008,0.20313 -0.0156,0.39454 -0.0234,0.57422 l 0.0469,0 c 0.375,-0.8203 0.89062,-1.41405 1.54688,-1.78125 0.66405,-0.37499 1.45311,-0.56249 2.36718,-0.5625 1.52343,10e-6 2.66796,0.54298 3.4336,1.6289 0.76561,1.07814 1.14842,2.71486 1.14843,4.91016 m -2.17968,0.0703 c -10e-6,-0.87499 -0.0586,-1.62499 -0.17578,-2.25 -0.1172,-0.6328 -0.3008,-1.14843 -0.55079,-1.54687 -0.24219,-0.40624 -0.55079,-0.70312 -0.92578,-0.89063 -0.36719,-0.1953 -0.8086,-0.29296 -1.32422,-0.29297 -0.51563,10e-6 -0.98047,0.0899 -1.39453,0.26953 -0.41406,0.17189 -0.76563,0.46095 -1.05468,0.86719 -0.28126,0.39845 -0.50001,0.9297 -0.65625,1.59375 -0.15626,0.65626 -0.23438,1.46876 -0.23438,2.4375 0,0.92969 0.0781,1.70313 0.23438,2.32031 0.15624,0.6172 0.37499,1.11329 0.65625,1.48829 0.28905,0.36719 0.63671,0.6289 1.04296,0.78515 0.41406,0.14844 0.875,0.22266 1.38282,0.22266 0.49218,0 0.92577,-0.0898 1.30078,-0.26953 0.37499,-0.17969 0.68749,-0.46875 0.9375,-0.86719 0.24999,-0.39844 0.43749,-0.91406 0.5625,-1.54688 0.1328,-0.64062 0.19921,-1.41405 0.19922,-2.32031"
         id="path3876"
         inkscape:connector-curvature="0" />
    </g>
    <g
       style="font-size:24px;font-style:normal;font-variant:normal;font-weight:normal;font-stretch:normal;line-height:125%;letter-spacing:0px;word-spacing:0px;opacity:0.51834866;fill:#000000;fill-opacity:1;stroke:none;font-family:Liberation Mono;-inkscape-font-specification:Liberation Mono"
       id="text3813">
      <path
         d="m 421.47375,486.41855 c 0.11718,0 0.23437,-0.008 0.35157,-0.0234 0.11717,-0.0156 0.23045,-0.0351 0.33984,-0.0586 l 0,1.3125 c -0.26564,0.0625 -0.53126,0.10937 -0.79687,0.14062 -0.25783,0.0312 -0.53517,0.0469 -0.83204,0.0469 -0.39844,0 -0.74219,-0.0508 -1.03125,-0.15235 -0.28126,-0.10937 -0.51172,-0.26953 -0.6914,-0.48047 -0.1797,-0.21874 -0.31642,-0.48437 -0.41016,-0.79687 -0.0938,-0.32031 -0.15235,-0.6914 -0.17578,-1.11328 l -0.0703,0 c -0.21876,0.40625 -0.46095,0.77344 -0.72656,1.10156 -0.26564,0.32813 -0.57032,0.60938 -0.91407,0.84375 -0.34375,0.22656 -0.73828,0.40234 -1.18359,0.52734 -0.44532,0.125 -0.95704,0.1875 -1.53516,0.1875 -1.23438,0 -2.16406,-0.33593 -2.78906,-1.00781 -0.625,-0.67187 -0.9375,-1.59375 -0.9375,-2.76562 0,-0.83594 0.15234,-1.51953 0.45703,-2.05078 0.3125,-0.53906 0.71875,-0.96093 1.21875,-1.26563 0.5,-0.30468 1.0664,-0.51562 1.69922,-0.63281 0.64062,-0.12499 1.28906,-0.1914 1.94531,-0.19922 l 2.76563,-0.0469 0,-0.6914 c -10e-6,-0.52343 -0.0547,-0.96874 -0.16406,-1.33594 -0.10158,-0.36718 -0.26173,-0.66405 -0.48047,-0.89062 -0.21095,-0.22656 -0.48048,-0.39062 -0.8086,-0.49219 -0.32813,-0.10937 -0.71094,-0.16405 -1.14843,-0.16406 -0.39064,10e-6 -0.7461,0.0313 -1.06641,0.0937 -0.31251,0.0547 -0.58204,0.16016 -0.80859,0.3164 -0.22657,0.14845 -0.41407,0.35548 -0.5625,0.6211 -0.14063,0.25782 -0.23438,0.58594 -0.28125,0.98437 l -2.20313,-0.19922 c 0.0781,-0.49999 0.22266,-0.95702 0.43359,-1.37109 0.21875,-0.42187 0.52344,-0.78515 0.91407,-1.08985 0.39062,-0.30467 0.8789,-0.53905 1.46484,-0.70312 0.59375,-0.17186 1.30859,-0.2578 2.14453,-0.25781 1.56249,10e-6 2.73437,0.3672 3.51563,1.10156 0.78905,0.72657 1.18358,1.78126 1.18359,3.16406 l 0,5.46094 c -10e-6,0.625 0.082,1.09766 0.24609,1.41797 0.16406,0.3125 0.47655,0.46875 0.9375,0.46875 m -7.13671,-0.0703 c 0.64843,0 1.21093,-0.1211 1.6875,-0.36329 0.47655,-0.24999 0.87108,-0.56249 1.18359,-0.9375 0.3203,-0.37499 0.55858,-0.78905 0.71484,-1.24218 0.15624,-0.45312 0.23437,-0.88672 0.23438,-1.30078 l 0,-1.04297 -2.22656,0.0469 c -0.4297,0.008 -0.86329,0.043 -1.30079,0.10547 -0.42969,0.0547 -0.82031,0.17579 -1.17187,0.36328 -0.34375,0.18751 -0.625,0.46095 -0.84375,0.82031 -0.21875,0.35157 -0.32813,0.82423 -0.32813,1.41797 0,0.64063 0.17188,1.15626 0.51563,1.54688 0.35156,0.39063 0.86328,0.58594 1.53516,0.58594"
         id="path3879"
         inkscape:connector-curvature="0" />
      <path
         d="m 426.8761,482.28183 0,-1.875 6.5625,0 0,1.875 -6.5625,0"
         id="path3881"
         inkscape:connector-curvature="0" />
      <path
         d="m 439.1925,487.71933 0,-1.69922 5.14454,0 0,-11.96484 c -0.14845,0.31251 -0.41017,0.60939 -0.78516,0.89062 -0.37501,0.27345 -0.8086,0.51173 -1.30078,0.71485 -0.48438,0.20313 -1.00391,0.3672 -1.5586,0.49218 -0.55469,0.1172 -1.08984,0.1758 -1.60546,0.17578 l 0,-1.73437 c 0.57812,10e-6 1.14452,-0.0664 1.69921,-0.19922 0.5625,-0.1328 1.08594,-0.31639 1.57032,-0.55078 0.48437,-0.24217 0.91405,-0.52733 1.28906,-0.85547 0.37499,-0.32811 0.66406,-0.68748 0.86719,-1.07812 l 1.94531,0 0,14.10937 4.13672,0 0,1.69922 -11.40235,0"
         id="path3883"
         inkscape:connector-curvature="0" />
    </g>
    <text
       xml:space="preserve"
       style="font-size:24px;font-style:normal;font-variant:normal;font-weight:normal;font-stretch:normal;line-height:125%;letter-spacing:0px;word-spacing:0px;fill:#000000;fill-opacity:1;stroke:none;font-family:Liberation Mono;-inkscape-font-specification:Liberation Mono;opacity:0.50458716"
       x="97.14286"
       y="48.92857"
       id="text3024"
       sodipodi:linespacing="125%"
       transform="translate(250.60924,378.43362)"><tspan
         sodipodi:role="line"
         id="tspan3026"
         x="97.14286"
         y="48.92857">a-1</tspan></text>
    <path
       sodipodi:type="arc"
       style="opacity:0.54587157;fill:#d9a084;fill-opacity:1;stroke:none"
       id="path3028"
       sodipodi:cx="75"
       sodipodi:cy="42.5"
       sodipodi:rx="11.785714"
       sodipodi:ry="11.785714"
       d="m 86.785714,42.5 a 11.785714,11.785714 0 1 1 -23.571428,0 11.785714,11.785714 0 1 1 23.571428,0 z"
       transform="translate(250.60924,378.43362)" />
    <text
       xml:space="preserve"
       style="font-size:24px;font-style:normal;font-variant:normal;font-weight:normal;font-stretch:normal;line-height:125%;letter-spacing:0px;word-spacing:0px;fill:#000000;fill-opacity:1;stroke:none;font-family:Liberation Mono;-inkscape-font-specification:Liberation Mono;opacity:0.52293578"
       x="318.82352"
       y="428.07648"
       id="text3030"
       sodipodi:linespacing="125%"><tspan
         sodipodi:role="line"
         id="tspan3032"
         x="318.82352"
         y="428.07648">1</tspan></text>
  </g>
</svg>
