<?xml version="1.0" encoding="UTF-8" standalone="no"?>
<!-- Created with Inkscape (http://www.inkscape.org/) -->

<svg
   xmlns:dc="http://purl.org/dc/elements/1.1/"
   xmlns:cc="http://creativecommons.org/ns#"
   xmlns:rdf="http://www.w3.org/1999/02/22-rdf-syntax-ns#"
   xmlns:svg="http://www.w3.org/2000/svg"
   xmlns="http://www.w3.org/2000/svg"
   xmlns:sodipodi="http://sodipodi.sourceforge.net/DTD/sodipodi-0.dtd"
   xmlns:inkscape="http://www.inkscape.org/namespaces/inkscape"
   width="375.28958"
   height="295.89557"
   id="svg2"
   version="1.1"
   inkscape:version="0.48.5 r10040"
   sodipodi:docname="precedence2.svg">
  <defs
     id="defs4">
    <marker
       inkscape:stockid="Arrow2Mend"
       orient="auto"
       refY="0"
       refX="0"
       id="Arrow2Mend"
       style="overflow:visible">
      <path
         id="path3794"
         style="fill-rule:evenodd;stroke-width:0.625;stroke-linejoin:round"
         d="M 8.7185878,4.0337352 -2.2072895,0.01601326 8.7185884,-4.0017078 c -1.7454984,2.3720609 -1.7354408,5.6174519 -6e-7,8.035443 z"
         transform="scale(-0.6,-0.6)"
         inkscape:connector-curvature="0" />
    </marker>
    <marker
       inkscape:stockid="Arrow2Lend"
       orient="auto"
       refY="0"
       refX="0"
       id="Arrow2Lend"
       style="overflow:visible">
      <path
         id="path3788"
         style="fill-rule:evenodd;stroke-width:0.625;stroke-linejoin:round"
         d="M 8.7185878,4.0337352 -2.2072895,0.01601326 8.7185884,-4.0017078 c -1.7454984,2.3720609 -1.7354408,5.6174519 -6e-7,8.035443 z"
         transform="matrix(-1.1,0,0,-1.1,-1.1,0)"
         inkscape:connector-curvature="0" />
    </marker>
  </defs>
  <sodipodi:namedview
     id="base"
     pagecolor="#ffffff"
     bordercolor="#666666"
     borderopacity="1.0"
     inkscape:pageopacity="0.0"
     inkscape:pageshadow="2"
     inkscape:zoom="1.979899"
     inkscape:cx="160.9245"
     inkscape:cy="85.241871"
     inkscape:document-units="px"
     inkscape:current-layer="layer1"
     showgrid="false"
     fit-margin-top="0"
     fit-margin-left="0"
     fit-margin-right="0"
     fit-margin-bottom="0"
     inkscape:window-width="1366"
     inkscape:window-height="713"
     inkscape:window-x="-8"
     inkscape:window-y="-4"
     inkscape:window-maximized="1" />
  <metadata
     id="metadata7">
    <rdf:RDF>
      <cc:Work
         rdf:about="">
        <dc:format>image/svg+xml</dc:format>
        <dc:type
           rdf:resource="http://purl.org/dc/dcmitype/StillImage" />
        <dc:title />
      </cc:Work>
    </rdf:RDF>
  </metadata>
  <g
     inkscape:label="Layer 1"
     inkscape:groupmode="layer"
     id="layer1"
     transform="translate(-204.57567,-280.10945)">
    <path
       style="fill:none;stroke:#000000;stroke-width:3;stroke-linejoin:round;stroke-miterlimit:4;stroke-opacity:1"
       d="m 317.18791,414.45084 c 0,25.94197 -21.03012,46.97209 -46.97209,46.97209 -25.94197,0 -46.97209,-21.03012 -46.97209,-46.97209 0,-25.94197 21.03012,-46.9721 46.97209,-46.9721 25.94197,0 46.97209,21.03013 46.97209,46.9721 z"
       id="path2985"
       inkscape:connector-curvature="0" />
    <path
       transform="translate(29.294424,-20.203051)"
       style="fill:none;stroke:#000000;stroke-width:3;stroke-linejoin:round;stroke-miterlimit:4;stroke-opacity:1"
       d="m 445.47728,436.16913 c 0,74.19962 -60.15068,134.35029 -134.3503,134.35029 -74.19962,0 -134.35029,-60.15067 -134.35029,-134.35029 0,-74.19962 60.15067,-134.3503 134.35029,-134.3503 74.19962,0 134.3503,60.15068 134.3503,134.3503 z"
       id="path2987"
       inkscape:connector-curvature="0" />
    <path
       style="fill:#000000;fill-opacity:1;stroke:#000000;stroke-width:3;stroke-linejoin:round;stroke-miterlimit:4;stroke-opacity:1"
       d="m 419.21331,414.45084 c 0,8.08943 -6.55778,14.64721 -14.64721,14.64721 -8.08943,0 -14.64721,-6.55778 -14.64721,-14.64721 0,-8.08944 6.55778,-14.64722 14.64721,-14.64722 8.08943,0 14.64721,6.55778 14.64721,14.64722 z"
       id="path2989"
       inkscape:connector-curvature="0" />
    <path
       style="fill:#000000;fill-opacity:1;stroke:#000000;stroke-width:3;stroke-linejoin:round;stroke-miterlimit:4;stroke-opacity:1"
       d="m 550.53312,414.45084 c 0,7.53154 -6.10552,13.63706 -13.63706,13.63706 -7.53154,0 -13.63706,-6.10552 -13.63706,-13.63706 0,-7.53154 6.10552,-13.63706 13.63706,-13.63706 7.53154,0 13.63706,6.10552 13.63706,13.63706 z"
       id="path2991"
       inkscape:connector-curvature="0" />
    <g
       id="g3010">
      <path
         style="font-size:medium;font-style:normal;font-variant:normal;font-weight:normal;font-stretch:normal;text-indent:0;text-align:start;text-decoration:none;line-height:normal;letter-spacing:normal;word-spacing:normal;text-transform:none;direction:ltr;block-progression:tb;writing-mode:lr-tb;text-anchor:start;baseline-shift:baseline;color:#000000;fill:#000000;fill-opacity:1;stroke:none;stroke-width:3;marker:none;visibility:visible;display:inline;overflow:visible;enable-background:accumulate;font-family:Sans;-inkscape-font-specification:Sans"
         d="m 353.4375,353.125 c -15.41281,-0.34266 -32.3733,8.87028 -46.1875,18.5625 -15.78766,11.07682 -27.5,23.03125 -27.5,23.03125 l 2.15625,2.09375 c 0,0 11.53543,-11.79351 27.0625,-22.6875 15.52707,-10.89399 34.98128,-20.6662 50.3125,-17.3125 15.56792,3.40548 25.89004,15.64529 32.34375,27.1875 6.45371,11.54221 8.96875,22.21875 8.96875,22.21875 l 2.90625,-0.6875 c 0,0 -2.57173,-11.05617 -9.25,-23 -6.67827,-11.94383 -17.55554,-24.95942 -34.3125,-28.625 -2.12421,-0.46467 -4.29817,-0.7323 -6.5,-0.78125 z"
         id="path2993"
         inkscape:connector-curvature="0" />
      <path
         inkscape:connector-curvature="0"
         d="m 296.98842,389.62601 -18.92446,8.99665 8.58763,-19.11354 c 0.85379,5.23192 5.04134,9.30504 10.33683,10.11689 z"
         style="fill-rule:evenodd;stroke-width:0.625;stroke-linejoin:round"
         id="path3016" />
    </g>
    <g
       id="g3026">
      <path
         style="font-size:medium;font-style:normal;font-variant:normal;font-weight:normal;font-stretch:normal;text-indent:0;text-align:start;text-decoration:none;line-height:normal;letter-spacing:normal;word-spacing:normal;text-transform:none;direction:ltr;block-progression:tb;writing-mode:lr-tb;text-anchor:start;baseline-shift:baseline;color:#000000;fill:#000000;fill-opacity:1;stroke:none;stroke-width:3;marker:none;visibility:visible;display:inline;overflow:visible;enable-background:accumulate;font-family:Sans;-inkscape-font-specification:Sans"
         d="m 467.9375,362.21875 c -23.3683,1.28663 -42.28125,9.96875 -42.28125,9.96875 l 1.25,2.71875 c 0,0 33.04118,-14.89822 64.71875,-7.96875 31.4108,6.87111 43.34375,40.4375 43.34375,40.4375 l 2.84375,-1 c 0,0 -12.32354,-35.10399 -45.5625,-42.375 -8.24305,-1.80317 -16.52307,-2.21013 -24.3125,-1.78125 z"
         id="path4393"
         inkscape:connector-curvature="0" />
      <path
         inkscape:connector-curvature="0"
         d="m 443.57568,373.6556 -20.89638,1.55441 14.91121,-14.72177 c -1.09345,5.18713 1.34034,10.49773 5.98517,13.16736 z"
         style="fill-rule:evenodd;stroke-width:0.625;stroke-linejoin:round"
         id="path3032" />
    </g>
    <g
       id="g3018">
      <path
         style="font-size:medium;font-style:normal;font-variant:normal;font-weight:normal;font-stretch:normal;text-indent:0;text-align:start;text-decoration:none;line-height:normal;letter-spacing:normal;word-spacing:normal;text-transform:none;direction:ltr;block-progression:tb;writing-mode:lr-tb;text-anchor:start;baseline-shift:baseline;color:#000000;fill:#000000;fill-opacity:1;stroke:none;stroke-width:3;marker:none;visibility:visible;display:inline;overflow:visible;enable-background:accumulate;font-family:Sans;-inkscape-font-specification:Sans"
         d="m 425.3125,300.28125 c -2.98713,-0.0978 -6.04899,-0.0874 -9.1875,0.0312 -100.09819,3.78301 -146.6875,82.5625 -146.6875,82.5625 l 2.5625,1.5313 c 0,0 45.68529,-77.3687 144.25,-81.09375 49.11522,-1.85621 78.57829,23.98115 96.03125,50.4375 17.45296,26.45635 22.625,53.40625 22.625,53.40625 l 2.96875,-0.5625 c 0,0 -5.2755,-27.45866 -23.09375,-54.46875 -16.70461,-25.32196 -44.66175,-50.37735 -89.46875,-51.84375 z"
         id="path4395"
         inkscape:connector-curvature="0" />
      <path
         inkscape:connector-curvature="0"
         d="m 284.95548,373.82393 -16.231,13.25251 3.77868,-20.61058 c 2.07757,4.87705 7.11608,7.83327 12.45232,7.35807 z"
         style="fill-rule:evenodd;stroke-width:0.625;stroke-linejoin:round"
         id="path3024" />
    </g>
    <g
       style="font-size:24px;font-style:normal;font-variant:normal;font-weight:normal;font-stretch:normal;line-height:125%;letter-spacing:0px;word-spacing:0px;fill:#000000;fill-opacity:1;stroke:none;font-family:Liberation Sans;-inkscape-font-specification:Liberation Sans"
       id="text4397"
       transform="translate(-22.728432,130.81475)">
      <path
         d="m 288.77356,313.74374 -0.42188,-1.16015 c -0.21094,-0.5703 -0.39844,-1.05858 -0.5625,-1.46485 -0.16406,-0.41404 -0.33594,-0.74998 -0.51562,-1.00781 -0.17188,-0.26561 -0.3711,-0.45701 -0.59766,-0.57422 -0.21875,-0.12498 -0.48437,-0.18748 -0.79687,-0.1875 -0.0859,2e-5 -0.19141,0.0156 -0.31641,0.0469 -0.125,0.0234 -0.21094,0.0469 -0.25781,0.0703 l -0.41016,-1.52344 c 0.19531,-0.0703 0.4336,-0.13279 0.71485,-0.1875 0.28124,-0.0625 0.54687,-0.0937 0.79687,-0.0937 0.42969,2e-5 0.8125,0.0703 1.14844,0.21094 0.34375,0.14064 0.65624,0.37111 0.9375,0.69141 0.28906,0.31251 0.56249,0.72657 0.82031,1.24218 0.26562,0.50783 0.53906,1.13283 0.82031,1.875 l 5.00391,13.3711 -2.22656,0 -2.42578,-6.76172 c -0.0625,-0.17187 -0.12892,-0.36718 -0.19922,-0.58594 -0.0703,-0.21874 -0.14063,-0.4414 -0.21094,-0.66797 -0.0703,-0.23436 -0.13672,-0.46093 -0.19922,-0.67968 -0.0625,-0.21875 -0.11329,-0.41015 -0.15234,-0.57422 -0.0547,0.16407 -0.12501,0.36329 -0.21094,0.59765 -0.0859,0.23439 -0.17969,0.47267 -0.28125,0.71485 -0.0937,0.24219 -0.1875,0.47266 -0.28125,0.6914 -0.0937,0.21095 -0.17188,0.38673 -0.23437,0.52735 l -3.01172,6.73828 -2.19141,0 5.26172,-11.3086"
         id="path4402"
         inkscape:connector-curvature="0" />
    </g>
    <g
       transform="translate(47.982246,219.2031)"
       id="g4404"
       style="font-size:24px;font-style:normal;font-variant:normal;font-weight:normal;font-stretch:normal;line-height:125%;letter-spacing:0px;word-spacing:0px;fill:#000000;fill-opacity:1;stroke:none;font-family:Liberation Sans;-inkscape-font-specification:Liberation Sans">
      <path
         inkscape:connector-curvature="0"
         id="path4406"
         d="m 288.77356,313.74374 -0.42188,-1.16015 c -0.21094,-0.5703 -0.39844,-1.05858 -0.5625,-1.46485 -0.16406,-0.41404 -0.33594,-0.74998 -0.51562,-1.00781 -0.17188,-0.26561 -0.3711,-0.45701 -0.59766,-0.57422 -0.21875,-0.12498 -0.48437,-0.18748 -0.79687,-0.1875 -0.0859,2e-5 -0.19141,0.0156 -0.31641,0.0469 -0.125,0.0234 -0.21094,0.0469 -0.25781,0.0703 l -0.41016,-1.52344 c 0.19531,-0.0703 0.4336,-0.13279 0.71485,-0.1875 0.28124,-0.0625 0.54687,-0.0937 0.79687,-0.0937 0.42969,2e-5 0.8125,0.0703 1.14844,0.21094 0.34375,0.14064 0.65624,0.37111 0.9375,0.69141 0.28906,0.31251 0.56249,0.72657 0.82031,1.24218 0.26562,0.50783 0.53906,1.13283 0.82031,1.875 l 5.00391,13.3711 -2.22656,0 -2.42578,-6.76172 c -0.0625,-0.17187 -0.12892,-0.36718 -0.19922,-0.58594 -0.0703,-0.21874 -0.14063,-0.4414 -0.21094,-0.66797 -0.0703,-0.23436 -0.13672,-0.46093 -0.19922,-0.67968 -0.0625,-0.21875 -0.11329,-0.41015 -0.15234,-0.57422 -0.0547,0.16407 -0.12501,0.36329 -0.21094,0.59765 -0.0859,0.23439 -0.17969,0.47267 -0.28125,0.71485 -0.0937,0.24219 -0.1875,0.47266 -0.28125,0.6914 -0.0937,0.21095 -0.17188,0.38673 -0.23437,0.52735 l -3.01172,6.73828 -2.19141,0 5.26172,-11.3086" />
    </g>
    <g
       style="font-size:24px;font-style:normal;font-variant:normal;font-weight:normal;font-stretch:normal;line-height:125%;letter-spacing:0px;word-spacing:0px;fill:#000000;fill-opacity:1;stroke:none;font-family:Liberation Sans;-inkscape-font-specification:Liberation Sans"
       id="text4424">
      <path
         d="m 450.30542,294.49582 c -0.20313,0.4375 -0.4336,0.83984 -0.69141,1.20703 -0.25001,0.36719 -0.54688,0.6875 -0.89062,0.96094 -0.33595,0.26562 -0.72267,0.47265 -1.16016,0.62109 -0.42969,0.14844 -0.91797,0.22266 -1.46484,0.22266 -1.60157,0 -2.78125,-0.53906 -3.53906,-1.61719 -0.75001,-1.07812 -1.125,-2.71093 -1.125,-4.89844 0,-2.21874 0.42187,-3.87889 1.26562,-4.98047 0.85156,-1.10155 2.09375,-1.65233 3.72656,-1.65234 0.53906,10e-6 1.02734,0.0781 1.46485,0.23438 0.43749,0.14845 0.82421,0.35938 1.16015,0.63281 0.33593,0.26563 0.62499,0.58204 0.86719,0.94922 0.24999,0.35938 0.45312,0.75001 0.60938,1.17187 l 0.0234,0 c 0.0312,-0.16405 0.0742,-0.35546 0.12891,-0.57422 0.0547,-0.21874 0.11718,-0.4492 0.1875,-0.6914 0.0781,-0.24999 0.16015,-0.49999 0.24609,-0.75 0.0937,-0.2578 0.1914,-0.5039 0.29297,-0.73828 l 2.20313,0 c -0.17189,0.3672 -0.34767,0.80079 -0.52735,1.30078 -0.1797,0.50001 -0.34766,1.02344 -0.5039,1.57031 -0.14845,0.53907 -0.28126,1.08204 -0.39844,1.62891 -0.1172,0.53907 -0.19532,1.03516 -0.23438,1.48828 0.0234,0.80469 0.0781,1.55078 0.16407,2.23828 0.0937,0.67969 0.1992,1.30078 0.3164,1.86328 0.12499,0.5625 0.2578,1.05859 0.39844,1.48828 0.14061,0.42969 0.28124,0.79688 0.42188,1.10156 l -2.14454,0 c -0.0859,-0.21875 -0.17188,-0.45703 -0.25781,-0.71484 -0.0781,-0.25781 -0.14845,-0.51172 -0.21094,-0.76172 -0.0625,-0.25781 -0.1211,-0.5 -0.17578,-0.72656 -0.0469,-0.22656 -0.082,-0.41797 -0.10547,-0.57422 l -0.0469,0 m -6.65625,-3.57422 c 0,0.87501 0.0547,1.62501 0.16406,2.25 0.10937,0.625 0.27734,1.14063 0.50391,1.54688 0.23437,0.39843 0.53124,0.6914 0.89062,0.8789 0.36719,0.1875 0.80859,0.28125 1.32422,0.28125 0.42187,0 0.82812,-0.10156 1.21875,-0.30469 0.39062,-0.20312 0.74609,-0.51171 1.06641,-0.92578 0.3203,-0.42187 0.59765,-0.94531 0.83203,-1.57031 0.24218,-0.62499 0.41796,-1.35937 0.52734,-2.20312 -0.0938,-0.67187 -0.23047,-1.30859 -0.41015,-1.91016 -0.17189,-0.60155 -0.39845,-1.12499 -0.67969,-1.57031 -0.27345,-0.45312 -0.60938,-0.81249 -1.00781,-1.07813 -0.39845,-0.26561 -0.8711,-0.39842 -1.41797,-0.39844 -0.51563,2e-5 -0.96094,0.0899 -1.33594,0.26954 -0.375,0.17969 -0.6875,0.46876 -0.9375,0.86718 -0.25,0.39845 -0.4375,0.91798 -0.5625,1.5586 -0.11719,0.63282 -0.17578,1.40235 -0.17578,2.30859"
         id="path4451"
         inkscape:connector-curvature="0" />
    </g>
    <g
       style="font-size:24px;font-style:normal;font-variant:normal;font-weight:normal;font-stretch:normal;line-height:125%;letter-spacing:0px;word-spacing:0px;fill:#000000;fill-opacity:1;stroke:none;font-family:Liberation Sans;-inkscape-font-specification:Liberation Sans"
       id="text4428">
      <path
         d="m 497.7287,385.96619 c -1e-5,0.69531 -0.10548,1.34375 -0.31641,1.94531 -0.20313,0.60156 -0.52345,1.12891 -0.96094,1.58203 -0.42969,0.45313 -0.98438,0.80859 -1.66406,1.06641 -0.67188,0.25781 -1.47657,0.38672 -2.41406,0.38672 -0.79688,0 -1.50782,-0.10547 -2.13281,-0.31641 -0.62501,-0.21875 -1.15626,-0.48047 -1.59375,-0.78516 l -0.0703,0 c 0.0234,0.44532 0.0391,0.84766 0.0469,1.20703 0.0156,0.35938 0.0234,0.7461 0.0234,1.16016 l 0,3.48047 -2.10938,0 0,-17.01563 c 0,-1.85154 0.44531,-3.20701 1.33594,-4.0664 0.89062,-0.85936 2.21874,-1.28905 3.98437,-1.28906 0.77343,10e-6 1.45703,0.0938 2.05079,0.28125 0.59374,0.1797 1.08983,0.44532 1.48828,0.79687 0.39842,0.35158 0.69921,0.78127 0.90234,1.28906 0.21093,0.50783 0.3164,1.08205 0.31641,1.72266 -10e-6,0.57032 -0.0703,1.07423 -0.21094,1.51172 -0.13282,0.4297 -0.32032,0.8047 -0.5625,1.125 -0.23439,0.32032 -0.51173,0.58985 -0.83203,0.80859 -0.31251,0.21876 -0.64845,0.39845 -1.00781,0.53906 0.4453,0.086 0.89061,0.23829 1.33593,0.45704 0.44531,0.21094 0.84374,0.5 1.19532,0.86718 0.35936,0.35939 0.64842,0.8086 0.86718,1.34766 0.21874,0.53126 0.32812,1.16407 0.32813,1.89844 m -9.08203,2.34375 c 0.21874,0.14844 0.46484,0.28906 0.73828,0.42187 0.28124,0.13282 0.57812,0.25 0.89062,0.35156 0.32031,0.0938 0.64844,0.16797 0.98438,0.22266 0.34374,0.0547 0.68359,0.082 1.01953,0.082 0.56249,0 1.05859,-0.0781 1.48828,-0.23437 0.42968,-0.16406 0.78515,-0.39453 1.06641,-0.69141 0.28905,-0.29687 0.5078,-0.65234 0.65625,-1.06641 0.14842,-0.41405 0.22264,-0.8789 0.22265,-1.39453 -1e-5,-0.5078 -0.0742,-0.97655 -0.22265,-1.40625 -0.14845,-0.42968 -0.38283,-0.80077 -0.70313,-1.11328 -0.31251,-0.3203 -0.71876,-0.5664 -1.21875,-0.73828 -0.50001,-0.17968 -1.09766,-0.26952 -1.79297,-0.26953 l 0,-1.66406 c 0.99218,-0.21093 1.70703,-0.58593 2.14453,-1.125 0.44531,-0.54687 0.66796,-1.29687 0.66797,-2.25 -1e-5,-0.34374 -0.0547,-0.66405 -0.16406,-0.96094 -0.10157,-0.30467 -0.26563,-0.56639 -0.49219,-0.78516 -0.21876,-0.22654 -0.5,-0.40233 -0.84375,-0.52734 -0.33594,-0.12499 -0.73828,-0.18749 -1.20703,-0.1875 -0.54688,10e-6 -1.02344,0.0703 -1.42969,0.21094 -0.40625,0.13282 -0.74219,0.35157 -1.00781,0.65625 -0.26563,0.29689 -0.46485,0.6836 -0.59765,1.16015 -0.13282,0.47658 -0.19923,1.05861 -0.19922,1.7461 l 0,9.5625"
         id="path4454"
         inkscape:connector-curvature="0" />
    </g>
    <g
       style="font-size:24px;font-style:normal;font-variant:normal;font-weight:normal;font-stretch:normal;line-height:125%;letter-spacing:0px;word-spacing:0px;fill:#000000;fill-opacity:1;stroke:none;font-family:Liberation Sans;-inkscape-font-specification:Liberation Sans"
       id="text3016">
      <path
         d="m 241.63609,474.01706 0,11.14453 -2.10937,0 0,-11.14453 -1.78125,0 0,-1.53516 1.78125,0 0,-1.42968 c 0,-0.46093 0.043,-0.88671 0.1289,-1.27735 0.0859,-0.39842 0.24219,-0.74217 0.46875,-1.03125 0.23438,-0.29686 0.55078,-0.52732 0.94922,-0.6914 0.39844,-0.17186 0.91406,-0.2578 1.54688,-0.25782 0.24999,2e-5 0.5078,0.0117 0.77344,0.0352 0.27343,0.0234 0.51171,0.0586 0.71484,0.10547 l 0,1.60547 c -0.13282,-0.0234 -0.28907,-0.043 -0.46875,-0.0586 -0.17188,-0.0234 -0.32813,-0.0351 -0.46875,-0.0351 -0.31251,10e-6 -0.57032,0.043 -0.77344,0.1289 -0.19532,0.086 -0.35157,0.21096 -0.46875,0.375 -0.10938,0.15627 -0.1875,0.35158 -0.23437,0.58594 -0.0391,0.23439 -0.0586,0.50392 -0.0586,0.80859 l 0,1.13672 2.47266,0 0,1.53516 -2.47266,0"
         id="path3029"
         inkscape:connector-curvature="0" />
      <path
         d="m 252.90953,474.90768 0,-2.42578 2.28516,0 0,2.42578 -2.28516,0 m 0,10.25391 0,-2.42578 2.28516,0 0,2.42578 -2.28516,0"
         id="path3031"
         inkscape:connector-curvature="0" />
      <path
         d="m 272.23375,482.82956 3.22266,-8.70703 -6.4336,0 3.21094,8.70703 m -1.33594,2.33203 -6.67969,-17.49609 2.4961,0 1.59375,4.48828 7.88672,0 1.59375,-4.48828 2.46093,0 -6.66796,17.49609 -2.6836,0"
         id="path3033"
         inkscape:connector-curvature="0" />
      <path
         d="m 285.28844,485.39597 c -1.27344,0 -2.23047,-0.33594 -2.8711,-1.00782 -0.64062,-0.67187 -0.96094,-1.59374 -0.96093,-2.76562 -1e-5,-0.83594 0.15624,-1.51953 0.46875,-2.05078 0.32031,-0.53906 0.73437,-0.96093 1.24218,-1.26563 0.51562,-0.30468 1.10156,-0.51562 1.75782,-0.63281 0.65624,-0.11718 1.32421,-0.18359 2.0039,-0.19922 l 2.84766,-0.0469 0,-0.69141 c -1e-5,-0.52343 -0.0547,-0.96874 -0.16406,-1.33594 -0.10939,-0.36718 -0.27736,-0.66405 -0.50391,-0.89062 -0.22657,-0.22655 -0.51173,-0.39062 -0.85547,-0.49219 -0.33594,-0.10936 -0.73438,-0.16405 -1.19531,-0.16406 -0.40626,10e-6 -0.77345,0.0313 -1.10156,0.0937 -0.32813,0.0547 -0.61329,0.16016 -0.85547,0.3164 -0.2422,0.14845 -0.43751,0.35548 -0.58594,0.6211 -0.14844,0.25782 -0.2461,0.58594 -0.29297,0.98437 l -2.20312,-0.19922 c 0.0781,-0.49999 0.22656,-0.95702 0.44531,-1.37109 0.21875,-0.42186 0.52734,-0.78515 0.92578,-1.08984 0.40625,-0.30468 0.91015,-0.53905 1.51172,-0.70313 0.60937,-0.17186 1.34374,-0.2578 2.20312,-0.25781 1.59374,10e-6 2.79296,0.3672 3.59766,1.10156 0.80468,0.72657 1.20702,1.78126 1.20703,3.16406 l 0,5.46094 c -1e-5,0.625 0.082,1.09766 0.24609,1.41797 0.16406,0.3125 0.47655,0.46875 0.9375,0.46875 0.11718,0 0.23437,-0.008 0.35157,-0.0234 0.11717,-0.0156 0.23045,-0.0352 0.33984,-0.0586 l 0,1.3125 c -0.26564,0.0625 -0.53126,0.10937 -0.79687,0.14062 -0.25783,0.0312 -0.53517,0.0469 -0.83204,0.0469 -0.39844,0 -0.74219,-0.0508 -1.03125,-0.15235 -0.28126,-0.10937 -0.51172,-0.26953 -0.6914,-0.48046 -0.1797,-0.21875 -0.31642,-0.48438 -0.41016,-0.79688 -0.0938,-0.32031 -0.15235,-0.6914 -0.17578,-1.11328 l -0.0703,0 c -0.22657,0.40625 -0.47657,0.77344 -0.75,1.10156 -0.26564,0.32813 -0.57813,0.60938 -0.9375,0.84375 -0.35938,0.22656 -0.76954,0.40235 -1.23047,0.52735 -0.45313,0.125 -0.97657,0.1875 -1.57031,0.1875 m 0.48047,-1.58204 c 0.67186,1e-5 1.2578,-0.12109 1.75781,-0.36328 0.5078,-0.24999 0.92577,-0.5664 1.2539,-0.94922 0.33593,-0.38281 0.58593,-0.80077 0.75,-1.2539 0.16406,-0.45312 0.24609,-0.88672 0.2461,-1.30078 l 0,-1.04297 -2.3086,0.0469 c -0.51563,0.008 -1.00781,0.0469 -1.47656,0.11719 -0.46094,0.0625 -0.86719,0.19141 -1.21875,0.38672 -0.35156,0.19532 -0.63281,0.46875 -0.84375,0.82031 -0.20313,0.35157 -0.30469,0.81251 -0.30469,1.38281 0,0.68751 0.18359,1.21876 0.55079,1.59375 0.37499,0.37501 0.90624,0.56251 1.59375,0.5625"
         id="path3035"
         inkscape:connector-curvature="0" />
      <path
         d="m 295.98766,485.16159 0,-2.56641 2.28515,0 0,2.56641 -2.28515,0"
         id="path3037"
         inkscape:connector-curvature="0" />
      <path
         d="m 306.46422,490.14206 c -0.50782,-1e-5 -0.95704,-0.082 -1.34766,-0.24609 -0.38281,-0.15626 -0.70313,-0.38282 -0.96094,-0.67969 -0.25781,-0.29688 -0.45312,-0.65626 -0.58593,-1.07813 -0.13282,-0.42187 -0.19922,-0.89844 -0.19922,-1.42968 l 0,-4.23047 c 0,-0.49219 -0.0586,-0.91016 -0.17578,-1.25391 -0.10938,-0.34375 -0.27344,-0.62499 -0.49219,-0.84375 -0.21094,-0.21874 -0.47266,-0.38281 -0.78516,-0.49219 -0.3125,-0.10937 -0.66797,-0.17187 -1.0664,-0.1875 l 0,-1.48828 c 0.39843,-0.0156 0.7539,-0.0781 1.0664,-0.1875 0.3125,-0.10937 0.57422,-0.27343 0.78516,-0.49219 0.21875,-0.21874 0.38281,-0.49999 0.49219,-0.84375 0.11718,-0.34374 0.17578,-0.7578 0.17578,-1.24218 l 0,-4.24219 c 0,-1.10155 0.25781,-1.9492 0.77344,-2.54297 0.52343,-0.59373 1.29687,-0.89061 2.32031,-0.89062 l 1.58203,0 0,1.51171 -0.73828,0 c -0.71095,2e-5 -1.21876,0.21096 -1.52344,0.63282 -0.29688,0.41407 -0.44532,1.04298 -0.44531,1.88672 l 0,4.17187 c -1e-5,0.39063 -0.0586,0.75001 -0.17578,1.07813 -0.1172,0.32813 -0.27735,0.61719 -0.48047,0.86718 -0.20313,0.25001 -0.44532,0.46095 -0.72656,0.63282 -0.27345,0.17188 -0.57032,0.29688 -0.89063,0.375 l 0,0.0234 c 0.33594,0.0781 0.64062,0.20313 0.91406,0.375 0.28125,0.17188 0.51953,0.38673 0.71485,0.64453 0.20312,0.25001 0.35937,0.53907 0.46875,0.86719 0.11718,0.32813 0.17577,0.69141 0.17578,1.08985 l 0,4.18359 c -1e-5,0.82812 0.14843,1.45312 0.44531,1.875 0.30468,0.42968 0.81249,0.64453 1.52344,0.64453 l 0.73828,0 0,1.51172 -1.58203,0"
         id="path3039"
         inkscape:connector-curvature="0" />
      <path
         d="m 313.31969,485.39597 c -1.27344,0 -2.23047,-0.33594 -2.8711,-1.00782 -0.64062,-0.67187 -0.96094,-1.59374 -0.96093,-2.76562 -1e-5,-0.83594 0.15624,-1.51953 0.46875,-2.05078 0.32031,-0.53906 0.73437,-0.96093 1.24218,-1.26563 0.51562,-0.30468 1.10156,-0.51562 1.75782,-0.63281 0.65624,-0.11718 1.32421,-0.18359 2.0039,-0.19922 l 2.84766,-0.0469 0,-0.69141 c -1e-5,-0.52343 -0.0547,-0.96874 -0.16406,-1.33594 -0.10939,-0.36718 -0.27736,-0.66405 -0.50391,-0.89062 -0.22657,-0.22655 -0.51173,-0.39062 -0.85547,-0.49219 -0.33594,-0.10936 -0.73438,-0.16405 -1.19531,-0.16406 -0.40626,10e-6 -0.77345,0.0313 -1.10156,0.0937 -0.32813,0.0547 -0.61329,0.16016 -0.85547,0.3164 -0.2422,0.14845 -0.43751,0.35548 -0.58594,0.6211 -0.14844,0.25782 -0.2461,0.58594 -0.29297,0.98437 l -2.20312,-0.19922 c 0.0781,-0.49999 0.22656,-0.95702 0.44531,-1.37109 0.21875,-0.42186 0.52734,-0.78515 0.92578,-1.08984 0.40625,-0.30468 0.91015,-0.53905 1.51172,-0.70313 0.60937,-0.17186 1.34374,-0.2578 2.20312,-0.25781 1.59374,10e-6 2.79296,0.3672 3.59766,1.10156 0.80468,0.72657 1.20702,1.78126 1.20703,3.16406 l 0,5.46094 c -1e-5,0.625 0.082,1.09766 0.24609,1.41797 0.16406,0.3125 0.47655,0.46875 0.9375,0.46875 0.11718,0 0.23437,-0.008 0.35157,-0.0234 0.11717,-0.0156 0.23045,-0.0352 0.33984,-0.0586 l 0,1.3125 c -0.26564,0.0625 -0.53126,0.10937 -0.79687,0.14062 -0.25783,0.0312 -0.53517,0.0469 -0.83204,0.0469 -0.39844,0 -0.74219,-0.0508 -1.03125,-0.15235 -0.28126,-0.10937 -0.51172,-0.26953 -0.6914,-0.48046 -0.1797,-0.21875 -0.31642,-0.48438 -0.41016,-0.79688 -0.0938,-0.32031 -0.15235,-0.6914 -0.17578,-1.11328 l -0.0703,0 c -0.22657,0.40625 -0.47657,0.77344 -0.75,1.10156 -0.26564,0.32813 -0.57813,0.60938 -0.9375,0.84375 -0.35938,0.22656 -0.76954,0.40235 -1.23047,0.52735 -0.45313,0.125 -0.97657,0.1875 -1.57031,0.1875 m 0.48047,-1.58204 c 0.67186,1e-5 1.2578,-0.12109 1.75781,-0.36328 0.5078,-0.24999 0.92577,-0.5664 1.2539,-0.94922 0.33593,-0.38281 0.58593,-0.80077 0.75,-1.2539 0.16406,-0.45312 0.24609,-0.88672 0.2461,-1.30078 l 0,-1.04297 -2.3086,0.0469 c -0.51563,0.008 -1.00781,0.0469 -1.47656,0.11719 -0.46094,0.0625 -0.86719,0.19141 -1.21875,0.38672 -0.35156,0.19532 -0.63281,0.46875 -0.84375,0.82031 -0.20313,0.35157 -0.30469,0.81251 -0.30469,1.38281 0,0.68751 0.18359,1.21876 0.55079,1.59375 0.37499,0.37501 0.90624,0.56251 1.59375,0.5625"
         id="path3041"
         inkscape:connector-curvature="0" />
      <path
         d="m 322.58922,482.39597 0,-1.79297 10.05469,-4.03125 -10.05469,-4.03125 0,-1.80469 11.66015,4.62891 0,2.40234 -11.66015,4.62891 m 0,2.76562 0,-1.69922 11.66015,0 0,1.69922 -11.66015,0"
         id="path3043"
         inkscape:connector-curvature="0" />
      <path
         d="m 336.8275,485.16159 0,-1.79297 4.20703,0 0,-12.70312 -3.72656,2.66015 0,-1.99218 3.90234,-2.6836 1.94531,0 0,14.71875 4.01954,0 0,1.79297 -10.34766,0"
         id="path3045"
         inkscape:connector-curvature="0" />
      <path
         d="m 349.46031,488.63034 c 0.71094,0 1.21875,-0.21485 1.52344,-0.64453 0.3125,-0.42188 0.46875,-1.04688 0.46875,-1.875 l 0,-4.18359 c 0,-0.39844 0.0547,-0.76172 0.16406,-1.08985 0.10937,-0.32812 0.26172,-0.61718 0.45703,-0.86719 0.20312,-0.2578 0.44141,-0.47265 0.71485,-0.64453 0.28124,-0.17187 0.58984,-0.29687 0.92578,-0.375 l 0,-0.0234 c -0.32813,-0.0781 -0.62891,-0.20312 -0.90235,-0.375 -0.27344,-0.17187 -0.51172,-0.38281 -0.71484,-0.63282 -0.20313,-0.24999 -0.36328,-0.53905 -0.48047,-0.86718 -0.10938,-0.32812 -0.16406,-0.6875 -0.16406,-1.07813 l 0,-4.17187 c 0,-0.84374 -0.15625,-1.47265 -0.46875,-1.88672 -0.30469,-0.42186 -0.8125,-0.6328 -1.52344,-0.63282 l -0.70312,0 0,-1.51171 1.54687,0 c 1.02344,10e-6 1.79297,0.29689 2.3086,0.89062 0.52343,0.59377 0.78515,1.44142 0.78515,2.54297 l 0,4.24219 c 0,0.48438 0.0547,0.89844 0.16406,1.24218 0.11719,0.34376 0.28125,0.62501 0.49219,0.84375 0.21875,0.21876 0.48437,0.38282 0.79688,0.49219 0.3203,0.10938 0.68358,0.17188 1.08984,0.1875 l 0,1.48828 c -0.40626,0.0156 -0.76954,0.0781 -1.08984,0.1875 -0.31251,0.10938 -0.57813,0.27345 -0.79688,0.49219 -0.21094,0.21876 -0.375,0.5 -0.49219,0.84375 -0.10938,0.34375 -0.16406,0.76172 -0.16406,1.25391 l 0,4.23047 c 0,0.53124 -0.0664,1.00781 -0.19922,1.42968 -0.13281,0.42187 -0.32813,0.78125 -0.58593,1.07813 -0.25782,0.29687 -0.58204,0.52343 -0.97266,0.67969 -0.38282,0.16405 -0.82813,0.24608 -1.33594,0.24609 l -1.54687,0 0,-1.51172 0.70312,0"
         id="path3047"
         inkscape:connector-curvature="0" />
      <path
         d="m 371.79625,478.86862 1.23047,-1.23047 -1.23047,-1.23047 -14.05078,0 0,-1.40625 12.64453,0 -1.08984,-1.08984 1.40625,-1.40625 4.60546,4.60547 0,1.05469 -4.60546,4.60547 -1.40625,-1.40625 1.08984,-1.08985 -12.64453,0 0,-1.40625 14.05078,0"
         id="path3049"
         inkscape:connector-curvature="0" />
      <path
         d="m 381.33531,485.39597 c -1.27344,0 -2.23047,-0.33594 -2.87109,-1.00782 -0.64063,-0.67187 -0.96094,-1.59374 -0.96094,-2.76562 0,-0.83594 0.15625,-1.51953 0.46875,-2.05078 0.32031,-0.53906 0.73437,-0.96093 1.24219,-1.26563 0.51562,-0.30468 1.10156,-0.51562 1.75781,-0.63281 0.65625,-0.11718 1.32421,-0.18359 2.00391,-0.19922 l 2.84765,-0.0469 0,-0.69141 c -1e-5,-0.52343 -0.0547,-0.96874 -0.16406,-1.33594 -0.10938,-0.36718 -0.27735,-0.66405 -0.50391,-0.89062 -0.22657,-0.22655 -0.51172,-0.39062 -0.85546,-0.49219 -0.33595,-0.10936 -0.73439,-0.16405 -1.19532,-0.16406 -0.40625,10e-6 -0.77344,0.0313 -1.10156,0.0937 -0.32813,0.0547 -0.61329,0.16016 -0.85547,0.3164 -0.24219,0.14845 -0.4375,0.35548 -0.58594,0.6211 -0.14844,0.25782 -0.24609,0.58594 -0.29296,0.98437 l -2.20313,-0.19922 c 0.0781,-0.49999 0.22656,-0.95702 0.44531,-1.37109 0.21875,-0.42186 0.52734,-0.78515 0.92578,-1.08984 0.40625,-0.30468 0.91016,-0.53905 1.51172,-0.70313 0.60937,-0.17186 1.34375,-0.2578 2.20313,-0.25781 1.59374,10e-6 2.79296,0.3672 3.59765,1.10156 0.80468,0.72657 1.20702,1.78126 1.20704,3.16406 l 0,5.46094 c -2e-5,0.625 0.082,1.09766 0.24609,1.41797 0.16405,0.3125 0.47655,0.46875 0.9375,0.46875 0.11717,0 0.23436,-0.008 0.35156,-0.0234 0.11718,-0.0156 0.23046,-0.0352 0.33985,-0.0586 l 0,1.3125 c -0.26564,0.0625 -0.53127,0.10937 -0.79688,0.14062 -0.25782,0.0312 -0.53517,0.0469 -0.83203,0.0469 -0.39845,0 -0.7422,-0.0508 -1.03125,-0.15235 -0.28126,-0.10937 -0.51173,-0.26953 -0.69141,-0.48046 -0.17969,-0.21875 -0.31641,-0.48438 -0.41015,-0.79688 -0.0938,-0.32031 -0.15236,-0.6914 -0.17578,-1.11328 l -0.0703,0 c -0.22657,0.40625 -0.47657,0.77344 -0.75,1.10156 -0.26563,0.32813 -0.57813,0.60938 -0.9375,0.84375 -0.35938,0.22656 -0.76953,0.40235 -1.23047,0.52735 -0.45313,0.125 -0.97656,0.1875 -1.57031,0.1875 m 0.48047,-1.58204 c 0.67187,1e-5 1.25781,-0.12109 1.75781,-0.36328 0.50781,-0.24999 0.92578,-0.5664 1.25391,-0.94922 0.33593,-0.38281 0.58593,-0.80077 0.75,-1.2539 0.16405,-0.45312 0.24608,-0.88672 0.24609,-1.30078 l 0,-1.04297 -2.30859,0.0469 c -0.51563,0.008 -1.00782,0.0469 -1.47656,0.11719 -0.46095,0.0625 -0.8672,0.19141 -1.21875,0.38672 -0.35157,0.19532 -0.63282,0.46875 -0.84375,0.82031 -0.20313,0.35157 -0.30469,0.81251 -0.30469,1.38281 0,0.68751 0.18359,1.21876 0.55078,1.59375 0.375,0.37501 0.90625,0.56251 1.59375,0.5625"
         id="path3051"
         inkscape:connector-curvature="0" />
    </g>
    <g
       style="font-size:24px;font-style:normal;font-variant:normal;font-weight:normal;font-stretch:normal;line-height:125%;letter-spacing:0px;word-spacing:0px;fill:#000000;fill-opacity:1;stroke:none;font-family:Liberation Sans;-inkscape-font-specification:Liberation Sans"
       id="text3020">
      <path
         d="m 355.88882,452.8367 -3.41015,-5.20312 -3.4336,5.20312 -2.27343,0 4.51172,-6.51562 -4.30079,-6.16407 2.33204,0 3.16406,4.9336 3.14062,-4.9336 2.35547,0 -4.30078,6.14063 4.57031,6.53906 -2.35547,0"
         id="path3054"
         inkscape:connector-curvature="0" />
      <path
         d="m 367.34976,442.58279 0,-2.42578 2.28516,0 0,2.42578 -2.28516,0 m 0,10.25391 0,-2.42578 2.28516,0 0,2.42578 -2.28516,0"
         id="path3056"
         inkscape:connector-curvature="0" />
      <path
         d="m 386.67398,450.50467 3.22266,-8.70703 -6.4336,0 3.21094,8.70703 m -1.33594,2.33203 -6.67968,-17.49609 2.49609,0 1.59375,4.48828 7.88672,0 1.59375,-4.48828 2.46094,0 -6.66797,17.49609 -2.6836,0"
         id="path3058"
         inkscape:connector-curvature="0" />
      <path
         d="m 407.21695,446.43826 c -10e-6,4.42188 -1.5547,6.63282 -4.66406,6.63282 -0.96095,0 -1.76173,-0.17188 -2.40235,-0.51563 -0.63281,-0.35156 -1.14844,-0.91406 -1.54687,-1.6875 l -0.0234,0 c 0,0.20313 -0.008,0.41406 -0.0234,0.63281 -0.008,0.21875 -0.0195,0.42188 -0.0351,0.60938 -0.008,0.1875 -0.0195,0.34765 -0.0352,0.48047 -0.008,0.13281 -0.0156,0.21484 -0.0234,0.24609 l -2.03906,0 c 0.008,-0.0703 0.0156,-0.1875 0.0234,-0.35156 0.008,-0.17188 0.0156,-0.375 0.0234,-0.60938 0.008,-0.23437 0.0117,-0.49218 0.0117,-0.77343 0.008,-0.28125 0.0117,-0.57422 0.0117,-0.87891 l 0,-14.77734 2.10938,0 0,4.95703 c -10e-6,0.23438 -0.004,0.46095 -0.0117,0.67968 0,0.21095 -0.004,0.39845 -0.0117,0.5625 -0.008,0.19533 -0.0156,0.37892 -0.0234,0.55079 l 0.0469,0 c 0.39062,-0.81249 0.90624,-1.39452 1.54687,-1.7461 0.64843,-0.35155 1.44922,-0.52733 2.40235,-0.52734 1.60155,10e-6 2.77733,0.53907 3.52734,1.61719 0.7578,1.07813 1.13671,2.71094 1.13672,4.89843 m -2.21484,0.0703 c -10e-6,-0.875 -0.0547,-1.625 -0.16407,-2.25 -0.10938,-0.625 -0.28516,-1.13671 -0.52734,-1.53516 -0.2422,-0.40624 -0.55079,-0.70311 -0.92578,-0.89063 -0.37501,-0.18748 -0.83204,-0.28123 -1.3711,-0.28125 -0.55469,2e-5 -1.04688,0.0899 -1.47656,0.26954 -0.42188,0.17969 -0.77735,0.46876 -1.0664,0.86718 -0.28126,0.39845 -0.4961,0.92189 -0.64454,1.57032 -0.14844,0.64844 -0.22266,1.44141 -0.22265,2.3789 -1e-5,0.90626 0.0742,1.66797 0.22265,2.28516 0.14844,0.61719 0.36328,1.12109 0.64454,1.51172 0.28905,0.38281 0.64452,0.66015 1.0664,0.83203 0.42187,0.16406 0.90625,0.24609 1.45313,0.24609 0.51561,0 0.96093,-0.0898 1.33593,-0.26953 0.375,-0.17969 0.6875,-0.46875 0.9375,-0.86719 0.24999,-0.39843 0.43359,-0.91406 0.55079,-1.54687 0.12499,-0.64062 0.18749,-1.41406 0.1875,-2.32031"
         id="path3060"
         inkscape:connector-curvature="0" />
      <path
         d="m 410.42789,452.8367 0,-2.56641 2.28515,0 0,2.56641 -2.28515,0"
         id="path3062"
         inkscape:connector-curvature="0" />
      <path
         d="m 430.31461,446.54373 1.23046,-1.23047 -1.23046,-1.23047 -14.05079,0 0,-1.40625 12.64454,0 -1.08985,-1.08984 1.40625,-1.40625 4.60547,4.60547 0,1.05469 -4.60547,4.60547 -1.40625,-1.40625 1.08985,-1.08985 -12.64454,0 0,-1.40625 14.05079,0"
         id="path3064"
         inkscape:connector-curvature="0" />
      <path
         d="m 447.34195,446.43826 c -10e-6,4.42188 -1.5547,6.63282 -4.66406,6.63282 -0.96095,0 -1.76173,-0.17188 -2.40235,-0.51563 -0.63281,-0.35156 -1.14844,-0.91406 -1.54687,-1.6875 l -0.0234,0 c 0,0.20313 -0.008,0.41406 -0.0234,0.63281 -0.008,0.21875 -0.0195,0.42188 -0.0351,0.60938 -0.008,0.1875 -0.0195,0.34765 -0.0352,0.48047 -0.008,0.13281 -0.0156,0.21484 -0.0234,0.24609 l -2.03906,0 c 0.008,-0.0703 0.0156,-0.1875 0.0234,-0.35156 0.008,-0.17188 0.0156,-0.375 0.0234,-0.60938 0.008,-0.23437 0.0117,-0.49218 0.0117,-0.77343 0.008,-0.28125 0.0117,-0.57422 0.0117,-0.87891 l 0,-14.77734 2.10938,0 0,4.95703 c -10e-6,0.23438 -0.004,0.46095 -0.0117,0.67968 0,0.21095 -0.004,0.39845 -0.0117,0.5625 -0.008,0.19533 -0.0156,0.37892 -0.0234,0.55079 l 0.0469,0 c 0.39062,-0.81249 0.90624,-1.39452 1.54687,-1.7461 0.64843,-0.35155 1.44922,-0.52733 2.40235,-0.52734 1.60155,10e-6 2.77733,0.53907 3.52734,1.61719 0.7578,1.07813 1.13671,2.71094 1.13672,4.89843 m -2.21484,0.0703 c -10e-6,-0.875 -0.0547,-1.625 -0.16407,-2.25 -0.10938,-0.625 -0.28516,-1.13671 -0.52734,-1.53516 -0.2422,-0.40624 -0.55079,-0.70311 -0.92578,-0.89063 -0.37501,-0.18748 -0.83204,-0.28123 -1.3711,-0.28125 -0.55469,2e-5 -1.04688,0.0899 -1.47656,0.26954 -0.42188,0.17969 -0.77735,0.46876 -1.0664,0.86718 -0.28126,0.39845 -0.4961,0.92189 -0.64454,1.57032 -0.14844,0.64844 -0.22266,1.44141 -0.22265,2.3789 -1e-5,0.90626 0.0742,1.66797 0.22265,2.28516 0.14844,0.61719 0.36328,1.12109 0.64454,1.51172 0.28905,0.38281 0.64452,0.66015 1.0664,0.83203 0.42187,0.16406 0.90625,0.24609 1.45313,0.24609 0.51561,0 0.96093,-0.0898 1.33593,-0.26953 0.375,-0.17969 0.6875,-0.46875 0.9375,-0.86719 0.24999,-0.39843 0.43359,-0.91406 0.55079,-1.54687 0.12499,-0.64062 0.18749,-1.41406 0.1875,-2.32031"
         id="path3066"
         inkscape:connector-curvature="0" />
    </g>
    <g
       style="font-size:24px;font-style:normal;font-variant:normal;font-weight:normal;font-stretch:normal;line-height:125%;letter-spacing:0px;word-spacing:0px;fill:#000000;fill-opacity:1;stroke:none;font-family:Liberation Sans;-inkscape-font-specification:Liberation Sans"
       id="text3024">
      <path
         d="m 488.43558,453.84686 c -0.29688,0.76563 -0.60157,1.45313 -0.91407,2.0625 -0.30469,0.61719 -0.64844,1.14062 -1.03125,1.57032 -0.38281,0.43749 -0.80859,0.76952 -1.27734,0.99609 -0.46875,0.23437 -1.00781,0.35156 -1.61719,0.35156 -0.26562,0 -0.51172,-0.008 -0.73828,-0.0234 -0.22656,-0.0156 -0.46484,-0.0508 -0.71484,-0.10546 l 0,-1.58204 c 0.14844,0.0234 0.3164,0.0391 0.5039,0.0469 0.1875,0.0156 0.34766,0.0234 0.48047,0.0234 0.61719,-1e-5 1.19141,-0.23048 1.72266,-0.69141 0.53125,-0.46094 0.99609,-1.19531 1.39453,-2.20312 l 0.19922,-0.50391 -5.02734,-12.62109 2.25,0 2.67187,7.00781 c 0.0781,0.21094 0.17578,0.49219 0.29297,0.84375 0.12499,0.35156 0.24609,0.70313 0.36328,1.05469 0.125,0.35156 0.23437,0.66797 0.32813,0.94921 0.0937,0.28126 0.14843,0.45704 0.16406,0.52735 0.0234,-0.0859 0.0781,-0.25391 0.16406,-0.50391 0.0937,-0.25781 0.19531,-0.54296 0.30469,-0.85547 0.11718,-0.31249 0.23437,-0.6289 0.35156,-0.94922 0.11718,-0.3203 0.21484,-0.59765 0.29297,-0.83203 l 2.48437,-7.24218 2.22657,0 -4.875,12.67968"
         id="path3069"
         inkscape:connector-curvature="0" />
      <path
         d="m 502.20511,443.59296 0,-2.42578 2.28515,0 0,2.42578 -2.28515,0 m 0,10.2539 0,-2.42578 2.28515,0 0,2.42578 -2.28515,0"
         id="path3071"
         inkscape:connector-curvature="0" />
      <path
         d="m 521.52933,451.51483 3.22265,-8.70703 -6.43359,0 3.21094,8.70703 m -1.33594,2.33203 -6.67969,-17.49609 2.4961,0 1.59375,4.48828 7.88671,0 1.59375,-4.48828 2.46094,0 -6.66797,17.49609 -2.68359,0"
         id="path3073"
         inkscape:connector-curvature="0" />
      <path
         d="m 532.95511,447.44843 c 0,0.72656 0.0508,1.39453 0.15234,2.0039 0.10937,0.60938 0.28906,1.13672 0.53906,1.58203 0.25,0.43751 0.57813,0.77735 0.98438,1.01953 0.41406,0.24219 0.92187,0.36329 1.52344,0.36329 0.74999,0 1.37499,-0.20313 1.875,-0.60938 0.5078,-0.40625 0.8203,-1.03125 0.9375,-1.875 l 2.13281,0.14063 c -0.0703,0.52344 -0.22267,1.02734 -0.45703,1.51171 -0.23439,0.48438 -0.5547,0.91016 -0.96094,1.27735 -0.39845,0.36719 -0.88673,0.66406 -1.46484,0.89062 -0.57814,0.21875 -1.2461,0.32813 -2.00391,0.32813 -0.99219,0 -1.83594,-0.16797 -2.53125,-0.50391 -0.69531,-0.33594 -1.26172,-0.79687 -1.69922,-1.38281 -0.42969,-0.59375 -0.74219,-1.28906 -0.9375,-2.08594 -0.19531,-0.80468 -0.29297,-1.67577 -0.29297,-2.61328 0,-0.85156 0.0703,-1.60155 0.21094,-2.25 0.14062,-0.65624 0.33594,-1.22655 0.58594,-1.71094 0.25781,-0.49217 0.55859,-0.90233 0.90234,-1.23047 0.34375,-0.33592 0.71484,-0.60155 1.11328,-0.79687 0.40625,-0.20311 0.83203,-0.34764 1.27735,-0.43359 0.4453,-0.0937 0.89452,-0.14062 1.34765,-0.14063 0.71093,1e-5 1.34375,0.0977 1.89844,0.29297 0.55468,0.19532 1.03124,0.46485 1.42969,0.80859 0.40624,0.33595 0.73436,0.73439 0.98437,1.19532 0.24999,0.46094 0.42577,0.95704 0.52735,1.48828 l -2.16797,0.16406 c -0.10939,-0.70312 -0.38673,-1.26171 -0.83203,-1.67578 -0.44532,-0.41405 -1.07813,-0.62108 -1.89844,-0.6211 -0.60157,2e-5 -1.10547,0.10158 -1.51172,0.30469 -0.39844,0.19532 -0.72266,0.49611 -0.97266,0.90235 -0.25,0.39844 -0.42969,0.90235 -0.53906,1.51171 -0.10156,0.60939 -0.15234,1.32423 -0.15234,2.14454"
         id="path3075"
         inkscape:connector-curvature="0" />
      <path
         d="m 543.92386,453.84686 0,-2.5664 2.28515,0 0,2.5664 -2.28515,0"
         id="path3077"
         inkscape:connector-curvature="0" />
      <path
         d="m 563.81058,447.55389 1.23047,-1.23046 -1.23047,-1.23047 -14.05078,0 0,-1.40625 12.64453,0 -1.08985,-1.08985 1.40625,-1.40625 4.60547,4.60547 0,1.05469 -4.60547,4.60547 -1.40625,-1.40625 1.08985,-1.08985 -12.64453,0 0,-1.40625 14.05078,0"
         id="path3079"
         inkscape:connector-curvature="0" />
      <path
         d="m 571.72073,447.44843 c 0,0.72656 0.0508,1.39453 0.15235,2.0039 0.10937,0.60938 0.28906,1.13672 0.53906,1.58203 0.25,0.43751 0.57812,0.77735 0.98437,1.01953 0.41406,0.24219 0.92187,0.36329 1.52344,0.36329 0.75,0 1.37499,-0.20313 1.875,-0.60938 0.50781,-0.40625 0.82031,-1.03125 0.9375,-1.875 l 2.13281,0.14063 c -0.0703,0.52344 -0.22266,1.02734 -0.45703,1.51171 -0.23438,0.48438 -0.55469,0.91016 -0.96093,1.27735 -0.39845,0.36719 -0.88673,0.66406 -1.46485,0.89062 -0.57813,0.21875 -1.2461,0.32813 -2.0039,0.32813 -0.9922,0 -1.83595,-0.16797 -2.53125,-0.50391 -0.69532,-0.33594 -1.26173,-0.79687 -1.69922,-1.38281 -0.42969,-0.59375 -0.74219,-1.28906 -0.9375,-2.08594 -0.19532,-0.80468 -0.29297,-1.67577 -0.29297,-2.61328 0,-0.85156 0.0703,-1.60155 0.21094,-2.25 0.14062,-0.65624 0.33593,-1.22655 0.58593,-1.71094 0.25781,-0.49217 0.5586,-0.90233 0.90235,-1.23047 0.34374,-0.33592 0.71484,-0.60155 1.11328,-0.79687 0.40624,-0.20311 0.83203,-0.34764 1.27734,-0.43359 0.44531,-0.0937 0.89453,-0.14062 1.34766,-0.14063 0.71093,1e-5 1.34374,0.0977 1.89844,0.29297 0.55467,0.19532 1.03124,0.46485 1.42968,0.80859 0.40624,0.33595 0.73437,0.73439 0.98438,1.19532 0.24999,0.46094 0.42577,0.95704 0.52734,1.48828 l -2.16797,0.16406 c -0.10938,-0.70312 -0.38672,-1.26171 -0.83203,-1.67578 -0.44532,-0.41405 -1.07813,-0.62108 -1.89844,-0.6211 -0.60156,2e-5 -1.10547,0.10158 -1.51171,0.30469 -0.39845,0.19532 -0.72266,0.49611 -0.97266,0.90235 -0.25,0.39844 -0.42969,0.90235 -0.53906,1.51171 -0.10157,0.60939 -0.15235,1.32423 -0.15235,2.14454"
         id="path3081"
         inkscape:connector-curvature="0" />
    </g>
    <g
       style="font-size:24px;font-style:normal;font-variant:normal;font-weight:normal;font-stretch:normal;line-height:125%;letter-spacing:0px;word-spacing:0px;fill:#000000;fill-opacity:1;stroke:none;font-family:Liberation Sans;-inkscape-font-specification:Liberation Sans"
       id="text3083">
      <path
         d="m 239.11072,559.88 0,11.14454 -2.10938,0 0,-11.14454 -1.78125,0 0,-1.53515 1.78125,0 0,-1.42969 c 0,-0.46092 0.043,-0.8867 0.12891,-1.27734 0.0859,-0.39842 0.24218,-0.74217 0.46875,-1.03125 0.23437,-0.29686 0.55078,-0.52733 0.94922,-0.69141 0.39843,-0.17186 0.91406,-0.25779 1.54687,-0.25781 0.25,2e-5 0.50781,0.0117 0.77344,0.0352 0.27343,0.0235 0.51171,0.0586 0.71484,0.10547 l 0,1.60547 c -0.13282,-0.0234 -0.28906,-0.043 -0.46875,-0.0586 -0.17188,-0.0234 -0.32813,-0.0351 -0.46875,-0.0352 -0.3125,2e-5 -0.57031,0.043 -0.77343,0.12891 -0.19532,0.086 -0.35157,0.21095 -0.46875,0.375 -0.10938,0.15626 -0.18751,0.35158 -0.23438,0.58594 -0.0391,0.23439 -0.0586,0.50392 -0.0586,0.80859 l 0,1.13672 2.47265,0 0,1.53515 -2.47265,0"
         style=""
         id="path3088" />
      <path
         d="m 257.57947,571.02454 -3.41016,-5.20313 -3.43359,5.20313 -2.27344,0 4.51172,-6.51563 -4.30078,-6.16406 2.33203,0 3.16406,4.93359 3.14063,-4.93359 2.35547,0 -4.30079,6.14062 4.57032,6.53907 -2.35547,0"
         style=""
         id="path3090" />
      <path
         d="m 269.04041,560.77063 0,-2.42578 2.28515,0 0,2.42578 -2.28515,0 m 0,10.25391 0,-2.42579 2.28515,0 0,2.42579 -2.28515,0"
         style=""
         id="path3092" />
      <path
         d="m 288.36462,568.6925 3.22266,-8.70703 -6.43359,0 3.21093,8.70703 m -1.33593,2.33204 -6.67969,-17.4961 2.49609,0 1.59375,4.48828 7.88672,0 1.59375,-4.48828 2.46094,0 -6.66797,17.4961 -2.68359,0"
         style=""
         id="path3094" />
      <path
         d="m 301.41931,571.25891 c -1.27344,0 -2.23047,-0.33594 -2.87109,-1.00781 -0.64063,-0.67187 -0.96094,-1.59375 -0.96094,-2.76563 0,-0.83593 0.15625,-1.51952 0.46875,-2.05078 0.32031,-0.53905 0.73437,-0.96093 1.24219,-1.26562 0.51562,-0.30468 1.10156,-0.51562 1.75781,-0.63282 0.65625,-0.11718 1.32421,-0.18358 2.00391,-0.19921 l 2.84765,-0.0469 0,-0.69141 c -1e-5,-0.52342 -0.0547,-0.96874 -0.16406,-1.33593 -0.10938,-0.36718 -0.27735,-0.66405 -0.50391,-0.89063 -0.22657,-0.22655 -0.51172,-0.39061 -0.85546,-0.49219 -0.33595,-0.10936 -0.73439,-0.16405 -1.19532,-0.16406 -0.40625,10e-6 -0.77344,0.0313 -1.10156,0.0937 -0.32813,0.0547 -0.61329,0.16017 -0.85547,0.31641 -0.24219,0.14845 -0.4375,0.35548 -0.58594,0.62109 -0.14844,0.25782 -0.24609,0.58595 -0.29296,0.98438 l -2.20313,-0.19922 c 0.0781,-0.49999 0.22656,-0.95702 0.44531,-1.3711 0.21875,-0.42186 0.52734,-0.78514 0.92578,-1.08984 0.40625,-0.30467 0.91016,-0.53905 1.51172,-0.70312 0.60937,-0.17187 1.34375,-0.2578 2.20313,-0.25782 1.59374,2e-5 2.79296,0.3672 3.59765,1.10157 0.80468,0.72657 1.20702,1.78126 1.20704,3.16406 l 0,5.46094 c -2e-5,0.625 0.082,1.09765 0.24609,1.41796 0.16405,0.31251 0.47655,0.46876 0.9375,0.46875 0.11717,10e-6 0.23436,-0.008 0.35156,-0.0234 0.11718,-0.0156 0.23046,-0.0352 0.33985,-0.0586 l 0,1.3125 c -0.26564,0.0625 -0.53127,0.10938 -0.79688,0.14063 -0.25782,0.0312 -0.53517,0.0469 -0.83203,0.0469 -0.39845,0 -0.7422,-0.0508 -1.03125,-0.15234 -0.28126,-0.10937 -0.51173,-0.26953 -0.69141,-0.48047 -0.17969,-0.21875 -0.31641,-0.48437 -0.41015,-0.79687 -0.0938,-0.32031 -0.15236,-0.69141 -0.17578,-1.11329 l -0.0703,0 c -0.22657,0.40626 -0.47657,0.77344 -0.75,1.10157 -0.26563,0.32812 -0.57813,0.60937 -0.9375,0.84375 -0.35938,0.22656 -0.76954,0.40234 -1.23047,0.52734 -0.45313,0.125 -0.97656,0.1875 -1.57031,0.1875 m 0.48047,-1.58203 c 0.67187,0 1.25781,-0.12109 1.75781,-0.36328 0.50781,-0.25 0.92578,-0.56641 1.25391,-0.94922 0.33593,-0.38281 0.58593,-0.80078 0.75,-1.25391 0.16405,-0.45312 0.24608,-0.88671 0.24609,-1.30078 l 0,-1.04297 -2.30859,0.0469 c -0.51563,0.008 -1.00782,0.0469 -1.47656,0.11719 -0.46095,0.0625 -0.8672,0.19141 -1.21875,0.38671 -0.35157,0.19532 -0.63282,0.46876 -0.84375,0.82032 -0.20313,0.35156 -0.30469,0.8125 -0.30469,1.38281 0,0.6875 0.18359,1.21875 0.55078,1.59375 0.375,0.375 0.90625,0.5625 1.59375,0.5625"
         style=""
         id="path3096" />
      <path
         d="m 328.92322,564.6261 c -1e-5,4.42188 -1.5547,6.63281 -4.66406,6.63281 -0.96095,0 -1.76173,-0.17187 -2.40235,-0.51562 -0.63282,-0.35157 -1.14844,-0.91407 -1.54687,-1.6875 l -0.0234,0 c 0,0.20312 -0.008,0.41406 -0.0234,0.63281 -0.008,0.21875 -0.0195,0.42187 -0.0351,0.60937 -0.008,0.1875 -0.0195,0.34766 -0.0352,0.48047 -0.008,0.13281 -0.0156,0.21485 -0.0234,0.2461 l -2.03906,0 c 0.008,-0.0703 0.0156,-0.1875 0.0234,-0.35157 0.008,-0.17187 0.0156,-0.375 0.0234,-0.60937 0.008,-0.23438 0.0117,-0.49219 0.0117,-0.77344 0.008,-0.28125 0.0117,-0.57422 0.0117,-0.87891 l 0,-14.77734 2.10938,0 0,4.95703 c -10e-6,0.23439 -0.004,0.46095 -0.0117,0.67969 -1e-5,0.21095 -0.004,0.39845 -0.0117,0.5625 -0.008,0.19532 -0.0156,0.37892 -0.0234,0.55078 l 0.0469,0 c 0.39062,-0.81249 0.90624,-1.39452 1.54687,-1.74609 0.64843,-0.35155 1.44921,-0.52733 2.40235,-0.52735 1.60155,2e-5 2.77733,0.53908 3.52734,1.61719 0.7578,1.07814 1.13671,2.71095 1.13672,4.89844 m -2.21485,0.0703 c -10e-6,-0.87499 -0.0547,-1.62499 -0.16406,-2.25 -0.10938,-0.62499 -0.28516,-1.13671 -0.52734,-1.53516 -0.2422,-0.40623 -0.55079,-0.70311 -0.92578,-0.89062 -0.37501,-0.18749 -0.83204,-0.28124 -1.3711,-0.28125 -0.55469,10e-6 -1.04688,0.0899 -1.47656,0.26953 -0.42188,0.1797 -0.77735,0.46876 -1.06641,0.86719 -0.28125,0.39845 -0.49609,0.92188 -0.64453,1.57031 -0.14844,0.64845 -0.22266,1.44141 -0.22265,2.37891 -10e-6,0.90625 0.0742,1.66797 0.22265,2.28515 0.14844,0.61719 0.36328,1.1211 0.64453,1.51172 0.28906,0.38282 0.64453,0.66016 1.06641,0.83203 0.42187,0.16407 0.90624,0.2461 1.45313,0.2461 0.51561,0 0.96092,-0.0898 1.33593,-0.26953 0.37499,-0.17969 0.68749,-0.46875 0.9375,-0.86719 0.24999,-0.39844 0.43359,-0.91406 0.55078,-1.54688 0.12499,-0.64062 0.18749,-1.41405 0.1875,-2.32031"
         style=""
         id="path3098" />
      <path
         d="m 332.13416,571.02454 0,-2.56641 2.28515,0 0,2.56641 -2.28515,0"
         style=""
         id="path3100" />
      <path
         d="m 342.61072,576.005 c -0.50782,0 -0.95704,-0.082 -1.34766,-0.24609 -0.38282,-0.15625 -0.70313,-0.38282 -0.96094,-0.67969 -0.25781,-0.29688 -0.45312,-0.65625 -0.58593,-1.07812 -0.13282,-0.42188 -0.19923,-0.89844 -0.19922,-1.42969 l 0,-4.23047 c -1e-5,-0.49218 -0.0586,-0.91015 -0.17578,-1.2539 -0.10938,-0.34375 -0.27344,-0.625 -0.49219,-0.84375 -0.21094,-0.21875 -0.47266,-0.38281 -0.78516,-0.49219 -0.3125,-0.10937 -0.66797,-0.17187 -1.0664,-0.1875 l 0,-1.48828 c 0.39843,-0.0156 0.7539,-0.0781 1.0664,-0.1875 0.3125,-0.10937 0.57422,-0.27343 0.78516,-0.49219 0.21875,-0.21874 0.38281,-0.49999 0.49219,-0.84375 0.11718,-0.34374 0.17577,-0.7578 0.17578,-1.24219 l 0,-4.24219 c -1e-5,-1.10154 0.25781,-1.9492 0.77344,-2.54296 0.52343,-0.59374 1.29687,-0.89061 2.32031,-0.89063 l 1.58203,0 0,1.51172 -0.73828,0 c -0.71095,2e-5 -1.21876,0.21095 -1.52344,0.63281 -0.29688,0.41408 -0.44532,1.04299 -0.44531,1.88672 l 0,4.17188 c -1e-5,0.39063 -0.0586,0.75 -0.17578,1.07812 -0.1172,0.32813 -0.27735,0.6172 -0.48047,0.86719 -0.20313,0.25001 -0.44532,0.46094 -0.72656,0.63281 -0.27345,0.17188 -0.57032,0.29688 -0.89063,0.375 l 0,0.0234 c 0.33593,0.0781 0.64062,0.20313 0.91406,0.375 0.28125,0.17188 0.51953,0.38672 0.71485,0.64453 0.20312,0.25 0.35937,0.53907 0.46875,0.86719 0.11718,0.32813 0.17577,0.69141 0.17578,1.08984 l 0,4.18359 c -1e-5,0.82813 0.14843,1.45313 0.44531,1.875 0.30468,0.42969 0.81249,0.64453 1.52344,0.64454 l 0.73828,0 0,1.51171 -1.58203,0"
         style=""
         id="path3102" />
      <path
         d="m 349.46619,571.25891 c -1.27344,0 -2.23047,-0.33594 -2.8711,-1.00781 -0.64062,-0.67187 -0.96094,-1.59375 -0.96093,-2.76563 -1e-5,-0.83593 0.15624,-1.51952 0.46875,-2.05078 0.32031,-0.53905 0.73437,-0.96093 1.24218,-1.26562 0.51562,-0.30468 1.10156,-0.51562 1.75782,-0.63282 0.65624,-0.11718 1.32421,-0.18358 2.0039,-0.19921 l 2.84766,-0.0469 0,-0.69141 c -1e-5,-0.52342 -0.0547,-0.96874 -0.16406,-1.33593 -0.10939,-0.36718 -0.27736,-0.66405 -0.50391,-0.89063 -0.22657,-0.22655 -0.51173,-0.39061 -0.85547,-0.49219 -0.33594,-0.10936 -0.73438,-0.16405 -1.19531,-0.16406 -0.40626,10e-6 -0.77345,0.0313 -1.10156,0.0937 -0.32813,0.0547 -0.61329,0.16017 -0.85547,0.31641 -0.2422,0.14845 -0.43751,0.35548 -0.58594,0.62109 -0.14844,0.25782 -0.2461,0.58595 -0.29297,0.98438 l -2.20312,-0.19922 c 0.0781,-0.49999 0.22656,-0.95702 0.44531,-1.3711 0.21875,-0.42186 0.52734,-0.78514 0.92578,-1.08984 0.40625,-0.30467 0.91015,-0.53905 1.51172,-0.70312 0.60937,-0.17187 1.34374,-0.2578 2.20312,-0.25782 1.59374,2e-5 2.79296,0.3672 3.59766,1.10157 0.80468,0.72657 1.20702,1.78126 1.20703,3.16406 l 0,5.46094 c -1e-5,0.625 0.082,1.09765 0.24609,1.41796 0.16405,0.31251 0.47655,0.46876 0.9375,0.46875 0.11718,10e-6 0.23437,-0.008 0.35157,-0.0234 0.11717,-0.0156 0.23045,-0.0352 0.33984,-0.0586 l 0,1.3125 c -0.26564,0.0625 -0.53126,0.10938 -0.79687,0.14063 -0.25783,0.0312 -0.53517,0.0469 -0.83204,0.0469 -0.39844,0 -0.74219,-0.0508 -1.03125,-0.15234 -0.28126,-0.10937 -0.51172,-0.26953 -0.6914,-0.48047 -0.1797,-0.21875 -0.31642,-0.48437 -0.41016,-0.79687 -0.0938,-0.32031 -0.15235,-0.69141 -0.17578,-1.11329 l -0.0703,0 c -0.22657,0.40626 -0.47657,0.77344 -0.75,1.10157 -0.26564,0.32812 -0.57814,0.60937 -0.9375,0.84375 -0.35938,0.22656 -0.76954,0.40234 -1.23047,0.52734 -0.45313,0.125 -0.97657,0.1875 -1.57031,0.1875 m 0.48047,-1.58203 c 0.67186,0 1.2578,-0.12109 1.75781,-0.36328 0.5078,-0.25 0.92577,-0.56641 1.2539,-0.94922 0.33593,-0.38281 0.58593,-0.80078 0.75,-1.25391 0.16406,-0.45312 0.24609,-0.88671 0.2461,-1.30078 l 0,-1.04297 -2.3086,0.0469 c -0.51563,0.008 -1.00781,0.0469 -1.47656,0.11719 -0.46094,0.0625 -0.86719,0.19141 -1.21875,0.38671 -0.35156,0.19532 -0.63281,0.46876 -0.84375,0.82032 -0.20313,0.35156 -0.30469,0.8125 -0.30469,1.38281 0,0.6875 0.18359,1.21875 0.55079,1.59375 0.37499,0.375 0.90624,0.5625 1.59375,0.5625"
         style=""
         id="path3104" />
      <path
         d="m 358.73572,568.25891 0,-1.79297 10.05469,-4.03125 -10.05469,-4.03125 0,-1.80469 11.66015,4.62891 0,2.40234 -11.66015,4.62891 m 0,2.76563 0,-1.69922 11.66015,0 0,1.69922 -11.66015,0"
         style=""
         id="path3106" />
      <path
         d="m 372.974,571.02454 0,-1.79297 4.20703,0 0,-12.70313 -3.72656,2.66016 0,-1.99219 3.90234,-2.68359 1.94531,0 0,14.71875 4.01954,0 0,1.79297 -10.34766,0"
         style=""
         id="path3108" />
      <path
         d="m 385.60681,574.49329 c 0.71094,-10e-6 1.21875,-0.21485 1.52344,-0.64454 0.3125,-0.42187 0.46875,-1.04687 0.46875,-1.875 l 0,-4.18359 c 0,-0.39843 0.0547,-0.76171 0.16406,-1.08984 0.10937,-0.32812 0.26172,-0.61719 0.45703,-0.86719 0.20312,-0.25781 0.4414,-0.47265 0.71485,-0.64453 0.28124,-0.17187 0.58984,-0.29687 0.92578,-0.375 l 0,-0.0234 c -0.32813,-0.0781 -0.62891,-0.20312 -0.90235,-0.375 -0.27344,-0.17187 -0.51172,-0.3828 -0.71484,-0.63281 -0.20313,-0.24999 -0.36328,-0.53906 -0.48047,-0.86719 -0.10938,-0.32812 -0.16406,-0.68749 -0.16406,-1.07812 l 0,-4.17188 c 0,-0.84373 -0.15625,-1.47264 -0.46875,-1.88672 -0.30469,-0.42186 -0.8125,-0.63279 -1.52344,-0.63281 l -0.70312,0 0,-1.51172 1.54687,0 c 1.02344,2e-5 1.79297,0.29689 2.3086,0.89063 0.52343,0.59376 0.78515,1.44142 0.78515,2.54296 l 0,4.24219 c 0,0.48439 0.0547,0.89845 0.16406,1.24219 0.11719,0.34376 0.28125,0.62501 0.49219,0.84375 0.21875,0.21876 0.48437,0.38282 0.79688,0.49219 0.3203,0.10938 0.68358,0.17188 1.08984,0.1875 l 0,1.48828 c -0.40626,0.0156 -0.76954,0.0781 -1.08984,0.1875 -0.31251,0.10938 -0.57813,0.27344 -0.79688,0.49219 -0.21094,0.21875 -0.375,0.5 -0.49219,0.84375 -0.10938,0.34375 -0.16406,0.76172 -0.16406,1.2539 l 0,4.23047 c 0,0.53125 -0.0664,1.00781 -0.19922,1.42969 -0.13281,0.42187 -0.32813,0.78124 -0.58593,1.07812 -0.25782,0.29687 -0.58204,0.52344 -0.97266,0.67969 -0.38282,0.16406 -0.82813,0.24609 -1.33594,0.24609 l -1.54687,0 0,-1.51171 0.70312,0"
         style=""
         id="path3110" />
      <path
         d="m 407.94275,564.73157 1.23047,-1.23047 -1.23047,-1.23047 -14.05078,0 0,-1.40625 12.64453,0 -1.08984,-1.08984 1.40625,-1.40625 4.60546,4.60546 0,1.05469 -4.60546,4.60547 -1.40625,-1.40625 1.08984,-1.08984 -12.64453,0 0,-1.40625 14.05078,0"
         style=""
         id="path3112" />
      <path
         d="m 414.11853,564.79016 c 0,-1.08593 0.082,-2.12499 0.24609,-3.11719 0.16406,-0.99217 0.42188,-1.9453 0.77344,-2.85937 0.35156,-0.91405 0.80078,-1.80077 1.34766,-2.66016 0.54687,-0.85936 1.19921,-1.6992 1.95703,-2.51953 l 2.03906,0 c -0.73438,0.82033 -1.3711,1.66408 -1.91015,2.53125 -0.53126,0.85939 -0.96876,1.75001 -1.3125,2.67188 -0.34376,0.91407 -0.60157,1.86719 -0.77344,2.85937 -0.16407,0.9922 -0.2461,2.03126 -0.2461,3.11719 0,1.08594 0.082,2.125 0.2461,3.11719 0.17187,0.99219 0.42968,1.94922 0.77344,2.87109 0.34374,0.92187 0.78124,1.8125 1.3125,2.67187 0.53905,0.85938 1.17577,1.69922 1.91015,2.51954 l -2.03906,0 c -0.75782,-0.82032 -1.41016,-1.66016 -1.95703,-2.51954 -0.54688,-0.85937 -0.9961,-1.74609 -1.34766,-2.66015 -0.35156,-0.91406 -0.60938,-1.86328 -0.77344,-2.84766 -0.16406,-0.99218 -0.24609,-2.03515 -0.24609,-3.1289 l 0,-0.0469"
         style=""
         id="path3114" />
      <path
         d="m 425.49744,571.25891 c -1.27344,0 -2.23047,-0.33594 -2.8711,-1.00781 -0.64062,-0.67187 -0.96094,-1.59375 -0.96093,-2.76563 -1e-5,-0.83593 0.15624,-1.51952 0.46875,-2.05078 0.32031,-0.53905 0.73437,-0.96093 1.24218,-1.26562 0.51562,-0.30468 1.10156,-0.51562 1.75782,-0.63282 0.65624,-0.11718 1.32421,-0.18358 2.0039,-0.19921 l 2.84766,-0.0469 0,-0.69141 c -1e-5,-0.52342 -0.0547,-0.96874 -0.16406,-1.33593 -0.10939,-0.36718 -0.27736,-0.66405 -0.50391,-0.89063 -0.22657,-0.22655 -0.51173,-0.39061 -0.85547,-0.49219 -0.33594,-0.10936 -0.73438,-0.16405 -1.19531,-0.16406 -0.40626,10e-6 -0.77345,0.0313 -1.10156,0.0937 -0.32813,0.0547 -0.61329,0.16017 -0.85547,0.31641 -0.2422,0.14845 -0.43751,0.35548 -0.58594,0.62109 -0.14844,0.25782 -0.2461,0.58595 -0.29297,0.98438 l -2.20312,-0.19922 c 0.0781,-0.49999 0.22656,-0.95702 0.44531,-1.3711 0.21875,-0.42186 0.52734,-0.78514 0.92578,-1.08984 0.40625,-0.30467 0.91015,-0.53905 1.51172,-0.70312 0.60937,-0.17187 1.34374,-0.2578 2.20312,-0.25782 1.59374,2e-5 2.79296,0.3672 3.59766,1.10157 0.80468,0.72657 1.20702,1.78126 1.20703,3.16406 l 0,5.46094 c -1e-5,0.625 0.082,1.09765 0.24609,1.41796 0.16405,0.31251 0.47655,0.46876 0.9375,0.46875 0.11718,10e-6 0.23437,-0.008 0.35157,-0.0234 0.11717,-0.0156 0.23045,-0.0352 0.33984,-0.0586 l 0,1.3125 c -0.26564,0.0625 -0.53126,0.10938 -0.79687,0.14063 -0.25783,0.0312 -0.53517,0.0469 -0.83204,0.0469 -0.39844,0 -0.74219,-0.0508 -1.03125,-0.15234 -0.28126,-0.10937 -0.51172,-0.26953 -0.6914,-0.48047 -0.1797,-0.21875 -0.31642,-0.48437 -0.41016,-0.79687 -0.0938,-0.32031 -0.15235,-0.69141 -0.17578,-1.11329 l -0.0703,0 c -0.22657,0.40626 -0.47657,0.77344 -0.75,1.10157 -0.26564,0.32812 -0.57814,0.60937 -0.9375,0.84375 -0.35938,0.22656 -0.76954,0.40234 -1.23047,0.52734 -0.45313,0.125 -0.97657,0.1875 -1.57031,0.1875 m 0.48047,-1.58203 c 0.67186,0 1.2578,-0.12109 1.75781,-0.36328 0.5078,-0.25 0.92577,-0.56641 1.2539,-0.94922 0.33593,-0.38281 0.58593,-0.80078 0.75,-1.25391 0.16406,-0.45312 0.24609,-0.88671 0.2461,-1.30078 l 0,-1.04297 -2.3086,0.0469 c -0.51563,0.008 -1.00781,0.0469 -1.47656,0.11719 -0.46094,0.0625 -0.86719,0.19141 -1.21875,0.38671 -0.35156,0.19532 -0.63281,0.46876 -0.84375,0.82032 -0.20313,0.35156 -0.30469,0.8125 -0.30469,1.38281 0,0.6875 0.18359,1.21875 0.55079,1.59375 0.37499,0.375 0.90624,0.5625 1.59375,0.5625"
         style=""
         id="path3116" />
      <path
         d="m 435.07166,565.58704 0,-1.875 5.85937,0 0,1.875 -5.85937,0"
         style=""
         id="path3118" />
      <path
         d="m 443.849,571.02454 0,-1.79297 4.20703,0 0,-12.70313 -3.72656,2.66016 0,-1.99219 3.90234,-2.68359 1.94531,0 0,14.71875 4.01954,0 0,1.79297 -10.34766,0"
         style=""
         id="path3120" />
      <path
         d="m 461.88416,564.83704 c -1e-5,1.09375 -0.082,2.13672 -0.2461,3.1289 -0.16407,0.98438 -0.42188,1.9336 -0.77344,2.84766 -0.35156,0.91406 -0.80078,1.80078 -1.34765,2.66015 -0.54688,0.85938 -1.19922,1.69922 -1.95703,2.51954 l -2.03907,0 c 0.73438,-0.82032 1.36719,-1.66016 1.89844,-2.51954 0.53906,-0.85937 0.98047,-1.75 1.32422,-2.67187 0.34375,-0.92187 0.59765,-1.8789 0.76172,-2.87109 0.17187,-0.99219 0.25781,-2.03125 0.25781,-3.11719 0,-1.08593 -0.0859,-2.12499 -0.25781,-3.11719 -0.16407,-0.99218 -0.41797,-1.9453 -0.76172,-2.85937 -0.34375,-0.92187 -0.78516,-1.81249 -1.32422,-2.67188 -0.53125,-0.86717 -1.16406,-1.71092 -1.89844,-2.53125 l 2.03907,0 c 0.75781,0.82033 1.41015,1.66017 1.95703,2.51953 0.54687,0.85939 0.99609,1.74611 1.34765,2.66016 0.35156,0.91407 0.60937,1.8672 0.77344,2.85937 0.16406,0.9922 0.24609,2.03126 0.2461,3.11719 l 0,0.0469"
         style=""
         id="path3122" />
      <path
         d="m 471.25916,563.89954 0,5.01562 -1.72266,0 0,-5.01562 -4.96875,0 0,-1.71094 4.96875,0 0,-5.01563 1.72266,0 0,5.01563 4.96875,0 0,1.71094 -4.96875,0"
         style=""
         id="path3124" />
      <path
         d="m 489.75134,564.6261 c -1e-5,4.42188 -1.5547,6.63281 -4.66406,6.63281 -0.96094,0 -1.76172,-0.17187 -2.40234,-0.51562 -0.63282,-0.35157 -1.14845,-0.91407 -1.54688,-1.6875 l -0.0234,0 c 0,0.20312 -0.008,0.41406 -0.0234,0.63281 -0.008,0.21875 -0.0195,0.42187 -0.0352,0.60937 -0.008,0.1875 -0.0195,0.34766 -0.0352,0.48047 -0.008,0.13281 -0.0156,0.21485 -0.0234,0.2461 l -2.03907,0 c 0.008,-0.0703 0.0156,-0.1875 0.0234,-0.35157 0.008,-0.17187 0.0156,-0.375 0.0234,-0.60937 0.008,-0.23438 0.0117,-0.49219 0.0117,-0.77344 0.008,-0.28125 0.0117,-0.57422 0.0117,-0.87891 l 0,-14.77734 2.10937,0 0,4.95703 c 0,0.23439 -0.004,0.46095 -0.0117,0.67969 0,0.21095 -0.004,0.39845 -0.0117,0.5625 -0.008,0.19532 -0.0156,0.37892 -0.0234,0.55078 l 0.0469,0 c 0.39062,-0.81249 0.90625,-1.39452 1.54688,-1.74609 0.64843,-0.35155 1.44921,-0.52733 2.40234,-0.52735 1.60155,2e-5 2.77733,0.53908 3.52734,1.61719 0.7578,1.07814 1.13671,2.71095 1.13672,4.89844 m -2.21484,0.0703 c -10e-6,-0.87499 -0.0547,-1.62499 -0.16406,-2.25 -0.10939,-0.62499 -0.28517,-1.13671 -0.52735,-1.53516 -0.24219,-0.40623 -0.55079,-0.70311 -0.92578,-0.89062 -0.37501,-0.18749 -0.83204,-0.28124 -1.37109,-0.28125 -0.5547,10e-6 -1.04688,0.0899 -1.47656,0.26953 -0.42188,0.1797 -0.77735,0.46876 -1.06641,0.86719 -0.28126,0.39845 -0.4961,0.92188 -0.64453,1.57031 -0.14844,0.64845 -0.22266,1.44141 -0.22266,2.37891 0,0.90625 0.0742,1.66797 0.22266,2.28515 0.14843,0.61719 0.36327,1.1211 0.64453,1.51172 0.28906,0.38282 0.64453,0.66016 1.06641,0.83203 0.42186,0.16407 0.90624,0.2461 1.45312,0.2461 0.51562,0 0.96093,-0.0898 1.33594,-0.26953 0.37499,-0.17969 0.68749,-0.46875 0.9375,-0.86719 0.24999,-0.39844 0.43358,-0.91406 0.55078,-1.54688 0.12499,-0.64062 0.18749,-1.41405 0.1875,-2.32031"
         style=""
         id="path3126" />
    </g>
  </g>
</svg>
